<svg xmlns="http://www.w3.org/2000/svg" viewBox="0 0 2606 408" id="svg_nf_waves" width="100%" height="100%"><defs><linearGradient id="sf_b" x1="1128.57" x2="1128.57" y1="372.09" y2="24.23" gradientTransform="matrix(1 0 0 -1 0 408.16)" gradientUnits="userSpaceOnUse"><stop offset="0" stop-color="#fff"></stop><stop offset="1" stop-color="#fff" stop-opacity="0"></stop></linearGradient><linearGradient id="sf_a" x1="1446.94" x2="1446.94" y1="408.08" y2=".23" gradientTransform="matrix(1 0 0 -1 0 408.16)" gradientUnits="userSpaceOnUse"><stop offset="0" stop-color="#fff" stop-opacity="0"></stop><stop offset="1" stop-color="#ffc539"></stop></linearGradient></defs><g><path fill="url(#sf_b)" fill-opacity=".7" d="M467.11 326.21c71.63-10.49 133.57 47.91 202 56.25 64.8 10.43 111.2-36.52 151.11-81.27 51.16-56.74 97.87-119.79 152.32-173.1 14.49-13.62 30.4-26 47.51-34.38 41.63-19.63 85.84-16.86 126.13 9.31 35.62 23.94 64 59.57 94.54 96.54 34.94 42.19 71.43 92.16 111.81 126.43 35.19 30.56 80.22 43.77 123.65 26.47 75.67-28.47 112-119.25 189.52-144 68.54-22 123 37.19 167.77 81.24a264.78 264.78 0 0 0 39.77 33.46c33.45 22.52 71.81 34.11 111.6 18.76 63.57-25 106.31-106.64 148.16-164.16 12.21-17.86 25-36.53 37.21-53.5 20.7-28.2 41.06-55.44 68.88-75.83a117.27 117.27 0 0 1 17.6-10.77c.07-.91.22-1.44.47-1.56-36.12 10.68-239.22 70.7-391.52 115.69a730.13 730.13 0 0 1-349.56 15.87L1115.84 72a178 178 0 0 0-58.55-4 208.68 208.68 0 0 0-68.69 18.81L544.82 295.56c-42.89 18.33-92 14.67-168.15-32.38L55 64.5C20.45 43.2-17.25 86.67 8.52 118 48.2 166.27 88 214.69 125.92 261.07c32.9 38.11 64.79 73.36 102 100.33a94.48 94.48 0 0 0 46.82 18 141 141 0 0 0 17 .22c26.49-1.31 54.41-10 79.7-20.39 30.65-12.61 63.25-29 95.6-32.95Z"></path><path fill="url(#sf_a)" fill-opacity=".7" d="M2600 348.8c-36.47-58-74.1-117.81-110.07-174.91-8.43-13.51-16.86-26.65-25.06-39.82-38.7-58.59-61.57-105.17-116.12-126.83-31.18-10.77-65.93-9.68-96 5.19a117.09 117.09 0 0 0-17.61 10.73c-27.82 20.32-48.18 47.47-68.88 75.57-12.22 16.89-25 35.52-37.21 53.31-41.85 57.31-84.58 138.63-148.16 163.58-39.78 15.28-78.16 3.73-111.6-18.69a265.76 265.76 0 0 1-39.77-33.34c-44.73-43.9-99.22-102.86-167.78-81-77.49 24.69-113.85 115.16-189.51 143.53-43.43 17.24-88.47 4.08-123.66-26.37-40.37-34.15-76.87-83.94-111.8-126-30.55-36.82-58.93-72.34-94.55-96.2-40.28-26.09-84.5-28.84-126.14-9.28-17.13 8.33-33 20.69-47.5 34.26-54.45 53.13-101.15 116-152.32 172.49-39.92 44.59-86.31 91.38-151.12 81-68.39-8.33-130.34-66.53-202-56.05-32.35 4-65 20.27-95.61 32.83-25.27 10.35-52.56 19.31-79.69 20.32l349.6 9.3q47.46 1.25 94.91-.64l698.35-20.14 291.46-14.16a2794.18 2794.18 0 0 1 444 25.47l15.86 2.18 380 52.37c32.47 4.47 55.39-31 37.93-58.77Z"></path></g></svg>