<svg xmlns="http://www.w3.org/2000/svg" viewBox="0 0 48 36" id="svg_bc_logo" width="100%" height="100%"><g><path fill="#fff" d="M46.5 13.58c0 7.18-7.07 12.39-12.44 11.62-1.17 3.35-6 9.1-9.86 7.56 3.35-3.86 4.1-8.48 3.76-10.08-.28-1.3-4-.92-7.51 1.8C18 29 12.63 34.32 9.7 34.32c-1.58 0-2.15-2.86-2.15-3.1 0-1.78 8.88-8.12 10.77-9a9.66 9.66 0 0 0 1.55-4.28c0-1.68-.84-2.12-1.35-2.12-2.49 0-6.2 3.55-8.07 7.32a1 1 0 0 1-1 .57c-1.64 0-2.66-2.27-2.4-2.57a12.28 12.28 0 0 0 1.53-1.79c3.46-5.88 3.71-12 2.47-12-1.95 0-5.63 6.37-5.63 16.63 0 4.77 1.06 7.49 1.78 8.18.24.23 0 1-.85 1.28-1.66.55-4.38-1.28-4.74-6.17C.76 16 6.89 3.87 12.35 4.82c1.19.21 3.07 2.6 1.21 9.62a6.65 6.65 0 0 1 2.71-1.39c3.67-.93 7.28 1.26 5.6 7.56 0 0 5.31-2.19 7.27-1.07s1.73 5.29-.29 9C32.3 26.39 33.76 21 33.76 21c2.09.42 8.37-2.25 8.37-8.68 0-4.73-3.92-8.58-9.43-8.58s-9.49 4-11.86 8.6c-.17.34-1.58-.35-1.58-1.35 0-3.14 5.8-9 13.3-9.27C38.46 1.49 46.5 4 46.5 13.58ZM26.91 8.44c-.8 1-.41 3.49.14 3.93.33-.15 7.76-1.29 9.09-2a2 2 0 0 0 1.13-1.46c-.92-.07-10.2-.51-10.36-.47Zm1.65 4.92a3.39 3.39 0 0 0 .12 3.31c.28-.13 6.52-1.08 7.64-1.66a1.7 1.7 0 0 0 1-1.22c-.82-.09-8.62-.47-8.76-.43Z" opacity=".3"></path></g></svg>