<svg xmlns="http://www.w3.org/2000/svg" viewBox="0 0 192 42" id="svg_bonga_models_logo" width="100%" height="100%"><g><path fill="#fff" d="M30.66 13.34s-.95-2.54-3.08-2.54-3.54 4-3.54 4c.13-3.62-2.91-6-6.92-5a7.38 7.38 0 0 0-3 1.56c2-7.85 0-10.53-1.32-10.76C6.88-.51.19 13 1.08 25.6c.39 5.48 3.36 7.52 5.17 6.91.94-.32 1.19-1.18.93-1.43-.78-.77-1.94-3.82-1.94-9.16 0-11.48 4-18.61 6.15-18.61 1.36 0 1.08 6.91-2.7 13.48a7 7 0 0 1-1.1 1.38c-.19.2-.39.41-.57.62s.83 2.88 2.62 2.88a1.14 1.14 0 0 0 1.14-.67c2-4.21 6.09-8.18 8.81-8.18.55 0 1.47.49 1.47 2.37A10.92 10.92 0 0 1 19.37 20C17.3 21 7.61 28.11 7.61 30.1c0 .27.62 3.47 2.33 3.47 3.21 0 9.1-6 11.74-11a.6.6 0 0 1 .68-.39c-.3 4.9 1.33 9.35 4.53 9.35 3.42 0 5.35-5.59 5.77-9.89.49-5.09-1.51-7.66-1.95-8.23Zm-1.08 7.91c-.48 2.44-2 6.6-3.53 6.16-.9-.26-.8-5.95.31-7.17a4 4 0 0 1 2.57-.72c.26 0 .09-2.32-1.56-2.32 0-.11.64-1.73 1.53-1.73.62 0 1.32 2.53.68 5.78ZM156.8 15.1a8.16 8.16 0 0 1 .58-3.44c.25-.44-.21-1.64-1.42-1.65s-2.42 1.31-2.51 4.09a27.16 27.16 0 0 1-1.93 6.16s-2.68 7-5.6 6.89c-1.33 0-1.9-1.2-2.22-2.94a20.23 20.23 0 0 1-.13-2.05 27.2 27.2 0 0 0 9.59-11.46 5.18 5.18 0 0 0-2.5-7.12 4.42 4.42 0 0 0-3.1.31c-3.68 2-7.08 9.34-7.52 17.08a26.1 26.1 0 0 1-4.45 5.66 5.13 5.13 0 0 1-2.38 1.19c-.59 0-1-.5-1.19-1.31a9.89 9.89 0 0 1-.2-2.94 3.2 3.2 0 0 0 1.74.11 4.26 4.26 0 0 0 1.44-.53 7.32 7.32 0 0 0 2.06-1.91 11.13 11.13 0 0 0 1.4-2.55 10.76 10.76 0 0 0 .7-2.73 7.63 7.63 0 0 0-.07-2.5 3.81 3.81 0 0 0-.92-1.85 2.49 2.49 0 0 0-1.82-.75 4.84 4.84 0 0 0-2.94.88 10 10 0 0 0-2.52 2.43 15 15 0 0 0-1.88 3.4c-.1.25-.19.5-.28.75v.05a14.08 14.08 0 0 0-.57 2.11c-.91 2.95-2.1 5.12-3 4.94-.6-.11-.74-1.87-.49-4 .91-5.26 2.45-12 5.16-13.76a1.57 1.57 0 0 0-1-1.54c-1.95-.77-3.6 2-4 3a13.7 13.7 0 0 0-1.09 2.47c-3-.73-7.23 1.72-9.5 10.55a21.38 21.38 0 0 1-1.36 3.23 22.25 22.25 0 0 0 .67-3.64c.49-5.09-1.51-7.66-2-8.24s-1-2.54-3.09-2.54-3.53 4-3.53 4c0-.56-.94 2.37-1.74 5v.12c0 .18-.07.41-.29.42a.51.51 0 0 1-.28-.15c-.19-.21-.17-.46-.11-1.26 0-.21 0-.45.06-.75.63-5.18.42-11.42-1.49-13.67a1.86 1.86 0 0 0-1.41-.73c-3.84 0-5.94 6.89-6 7 .11-2.62-.44-6-2-7.75a3.35 3.35 0 0 0-2-.93h-.42A5.34 5.34 0 0 0 84 5.6a13.46 13.46 0 0 0-.94 3.64C83.1 4.36 81.78 2 79.34 2c-.86 0-2.56.75-2.57 1.66s0 .09.07.41c1 2.48 2.88 8.72 2.64 12.27a48.43 48.43 0 0 1-1.78 11.9 1.8 1.8 0 0 0 .39 1.45 4.88 4.88 0 0 0 4.21 1.78h.22c.9 0 1.08-1 1.09-1.07-.51-4.93.2-18.76 3.22-22.22a2.27 2.27 0 0 1 1.72-.9 1.08 1.08 0 0 1 .89.5c1 1.43.75 6.38.32 10.28a83.17 83.17 0 0 1-1.66 10.12 1.94 1.94 0 0 0 .27 1.82 5 5 0 0 0 4 1.51 1.14 1.14 0 0 0 .91-.3 1 1 0 0 0 .15-.74c-.63-4.35.54-17.3 3-20.25a1.75 1.75 0 0 1 1.33-.73 1.46 1.46 0 0 1 1.24.71c1.72 2.6.44 13.17-1.25 17.6a1.84 1.84 0 0 0 .28 1.63 3.77 3.77 0 0 0 3.26 1.48.71.71 0 0 0 .52-.25c.92-1 1.13-4.11 1.11-5.64V23.5a1.22 1.22 0 0 1 .25.62c.18 4.09 1.77 7.44 4.55 7.44h.2c2.53 0 6.31-3.76 6.54-4.12 0 0 .53 3.18 3 3.2 2.07 0 3.53-3.42 3.79-4.23.41 1.7 1.49 4.13 3.61 4.16 1.43 0 2.64-1.48 3.6-3.42.09.23.18.45.28.66a5.18 5.18 0 0 0 1.57 1.92 3.69 3.69 0 0 0 2.19.73 4.91 4.91 0 0 0 2.2-.41 8.84 8.84 0 0 0 1.62-1l.37-.27a24.59 24.59 0 0 0 3.39-3.44c.35 2.67 1.48 4.24 2.63 4.84a5.06 5.06 0 0 0 3.86.42c2.1-.42 3.57-2.82 4.11-3.69 0-.08.08-.14.11-.19s.08-.18.11-.12c1.49 2.66 5.7 5.87 8.43 3.82 2.45-1.85.62-6.35-1-10.24a19.82 19.82 0 0 1-1.53-5.08Zm-9.38-8.2a1.87 1.87 0 0 1 2.34-.45c.69.38.6 1.82.43 2.37-1.31 4.19-5.54 8.49-5.94 8.77a4.58 4.58 0 0 1-.68.52c.6-5.01 2.23-9.39 3.85-11.21Zm-14.74 12a19.32 19.32 0 0 1 1-2.66 7.58 7.58 0 0 1 1.16-1.85 1.38 1.38 0 0 1 1.25-.57c.34.07.46.42.36 1.06a7.54 7.54 0 0 1-.76 2.23 17.06 17.06 0 0 1-1.58 2.6 9.74 9.74 0 0 1-2.11 2.16 25.11 25.11 0 0 1 .68-2.96Zm-22.26 2.37c-.48 2.45-2 6.61-3.53 6.17-.9-.26-.8-5.95.31-7.17a4 4 0 0 1 2.57-.72c.26 0 .09-2.32-1.56-2.32 0-.11.64-1.73 1.53-1.73.62.01 1.32 2.5.68 5.78Zm10.66-.7v.05c-.3.74-.62 1.46-1 2.13-1.7 3.29-2.7 3-2.82 2.09-.34-2.69 2.59-10.18 5.21-9.5-.37 1.39-.83 3.1-1.39 5.24Zm35.35 5.75c-1.53 1.21-4.26-2-4-2.72s2.21-5.64 2.35-5.92c.01-.03 3.44 7.22 1.65 8.65ZM75.89 11c-1.71-1-3.74-.53-4 .2 0 .25-.18.29-.41.22a7.18 7.18 0 0 0-2-.39c-4.55 0-6.31 6.84-6.48 7.49a12.77 12.77 0 0 0-2.36 1l-.12-.52a.45.45 0 0 0 0-.13c-.29-1.17-2-8-4.79-8a1 1 0 0 0-1 .71c0 .43-.28.42-.59.35a5.25 5.25 0 0 0-1.84-.08c-3.19.64-5.26 6.6-5.7 11.46v.3c-.06.59-.16 1.55-.7 1.55-.15 0-.17-.79-.21-2-.1-3.59-.29-10.79-4.3-10.79-2.66 0-3.85 3.86-3.85 3.86.09-1.25-.72-5.09-3.19-5.09a1.79 1.79 0 0 0-1.73 1.29c2.27 3.15 1.37 11.21.22 17.44a3.44 3.44 0 0 0 3.26 1.35c.28 0 .84-.37.87-.66.73-8.48 1.52-14.3 4.09-14.3 2.2 0 1.52 7.15 1.22 10.32-.05.52-.09.92-.1 1.18a.62.62 0 0 0 0 .13c0 .71.17 2.69 2.2 2.69 1.83 0 2.92-3.14 2.92-3.14A3.29 3.29 0 0 0 50.14 30c2.41 0 5.9-11.15 6.54-13.2a2.74 2.74 0 0 1 .1-.31 27.3 27.3 0 0 1 1.32 4.82.73.73 0 0 1-.08.63c-1.16 1.17-5.87 7.18-5.87 13 0 3.85 2.45 6.48 5.25 6.48s4-2.62 4.74-4.9c1.24-3.94-.4-12.36-.74-14.07v-.13a5.35 5.35 0 0 1 1.41-.85c-.11 1.47 0 8.76 2.87 8.76 2.48 0 4.26-6.47 4.26-6.47 0 1.27.57 7.71 3.88 7.71 1 0 1.14-.9.65-1.51-1.41-1.7-1.34-11.14 1-17.43a2.52 2.52 0 0 1 .29-.49c.24-.38.5-.74.13-1.04ZM54 15.16c-.13.59-2.63 10.21-4.26 10.21-1.38 0 1-10.64 4-10.64.18 0 .33.12.26.43Zm5.42 19.05c-.36 2.35-1.3 3.53-2.22 3.53S56 36.37 56 35.73c-.18-4.9 2.79-9.77 3.11-10.22a29.63 29.63 0 0 1 .32 8.7Zm6.45-9.89c-1.47-.39.47-10.14 5-9.78C70.3 18 68 24.88 65.88 24.32ZM191 14.84c0 8-7.72 13.88-13.59 13-1.28 3.74-6.55 10.18-10.76 8.46 3.65-4.33 4.48-9.5 4.11-11.29-.6-2.84-7 1.3-7.44 1.58-1-2.93 5.82-6.32 8.75-5.11 2.18.9 1.9 5.92-.31 10 3.76-2.37 5.36-8.43 5.36-8.43 2.28.47 9.14-2.52 9.14-9.71 0-5.3-4.28-9.6-10.3-9.6s-10.36 4.49-13 9.62c-.19.37-1.72-.4-1.72-1.51 0-3.52 6.34-10.09 14.52-10.39C182.22 1.31 191 4.1 191 14.84Zm-10.08-5.18a2.24 2.24 0 0 1-1.23 1.63c-1 .53-5.23 1.31-7.84 1.79-1.14.21-2 .37-2.08.42-.61-.5-1-3.34-.16-4.4.18-.05 10.31.44 11.31.56Zm0 5.42a1.9 1.9 0 0 1-1 1.37A44.39 44.39 0 0 1 173.3 18c-1 .18-1.66.31-1.75.35a3.87 3.87 0 0 1-.14-3.7c.16-.09 8.67.35 9.51.43Zm-32.14 7.08c0 .12 0 .09 0 0Zm0 0Z" opacity=".22"></path></g></svg>