<svg xmlns="http://www.w3.org/2000/svg" viewBox="0 0 340 256" id="svg_stack_of_coins" width="100%" height="100%"><defs><linearGradient id="sf_f" x1="137.51" x2="137.51" y1="852.89" y2="999.37" gradientTransform="translate(0 -817.73)" gradientUnits="userSpaceOnUse"><stop offset="0" stop-color="#e34150" stop-opacity="0"></stop><stop offset="1" stop-color="#e34150"></stop></linearGradient><linearGradient id="sf_e" x1="191.54" x2="191.54" y1="931.48" y2="1047.54" href="#sf_f"></linearGradient><linearGradient id="sf_d" x1="282.78" x2="282.78" y1="969.92" y2="1042.49" href="#sf_f"></linearGradient><linearGradient id="sf_c" x1="106.58" x2="106.58" y1="996.38" y2="1041.2" href="#sf_f"></linearGradient><linearGradient id="sf_b" x1="129.16" x2="129.16" y1="1028.63" y2="1073.45" href="#sf_f"></linearGradient><linearGradient id="sf_a" x1="89.32" x2="89.32" y1="885.32" y2="969.1" href="#sf_f"></linearGradient></defs><g><path fill="url(#sf_f)" fill-opacity=".25" d="M116.81 35.62c-4.17 0-11.86-1-15.81 0 5.4 1.34 28.85 6.72 46.88 34.49 13.52 25.53 10.37 52 3.16 69.87-17.33 36.45-41.51 37.18-51.4 39.87 4.06 1.12 12.85 1.79 17.13 1.79 32.32 0 58.61-32.76 58.61-73s-26.25-73.02-58.57-73.02Z"></path><path fill="url(#sf_e)" fill-opacity=".25" fill-rule="evenodd" d="m202.14 138.88 9 51.51L186.81 172l1.35 26-8.11-2.69v-17.47c0-5.82-6.78-10.31-27.06-14.82 5.72-5.68 17.41-23.47 18.49-49.27H176c.92 8.1 7.38 24.41 26.14 25.13Zm1.4 74v16.94h26.6l-.34-.11c-3-.91-8.29-2.56-12.33-12.39a75.38 75.38 0 0 1-4.95-19.3l-4.05 2.68 6.76 12.55 2.21 4.07-8.06 5.34Z"></path><path fill="url(#sf_d)" fill-opacity=".25" d="M308.67 212c2.53 8.6 7.85 12 9.95 12.74h-71.68c1-.3 5.74-1.87 9.88-9.19 4.86-8.69 7.74-26.69 10.87-42.32s11.72-21.06 17.59-21.06c8.64 0 14 10.46 15.81 17.63s4.43 31.42 7.58 42.2Z"></path><path fill="url(#sf_c)" fill-opacity=".25" d="M74.13 194.77c-31.38-3.57-44-11.94-46.45-15.67v25.53c0 2.69 4.94 7.62 12.18 9.88s36.52 9 67.62 9 55.91-4.95 65.82-9 12.18-7.16 12.18-9.88v-26c-4.51 7.61-19.84 11.65-25.7 13s-46.39 7.62-85.65 3.14Z"></path><path fill="url(#sf_b)" fill-opacity=".25" d="M96.72 227c-31.38-3.58-44-11.94-46.46-15.67v25.53c0 2.69 5 7.61 12.18 9.88s36.52 9 67.62 9 55.92-4.95 65.83-9 12.18-7.16 12.18-9.88v-26c-4.51 7.61-19.84 11.65-25.7 13s-46.44 7.64-85.65 3.14Z"></path><path fill="url(#sf_a)" fill-opacity=".25" d="M95.06 151.35H83.45a1.87 1.87 0 0 1-1.88-1.86v-4.83s0-.07-.09-.08c-11.41-2.46-18.63-10.87-18.85-22a1.83 1.83 0 0 1 .53-1.33 1.9 1.9 0 0 1 1.35-.56h12.68a1.88 1.88 0 0 1 1.88 1.81c.21 5.25 5.57 7.69 10.45 7.73h.13c4.64 0 9.4-2.12 9.67-6.91-.39-4.49-5.1-5.6-9.67-6.68-1.09-.25-2.12-.5-3.1-.79l-1.81-.45c-6.34-1.6-12.85-3.23-17.36-8.58a18.84 18.84 0 0 1-3.68-14.29c.66-5.38 3.12-10 6.77-12.7a24.53 24.53 0 0 1 11-4.78.09.09 0 0 0 .09-.08v-5.5a1.88 1.88 0 0 1 1.87-1.88h11.63A1.89 1.89 0 0 1 97 69.47v5.72a.08.08 0 0 0 .08.08c10.27 2.34 16.57 10 16.81 20.44a2 2 0 0 1-.54 1.34 1.9 1.9 0 0 1-1.36.58H99.57a1.86 1.86 0 0 1-1.87-1.75A6.51 6.51 0 0 0 94 90.5a13.13 13.13 0 0 0-11.75.25 4.42 4.42 0 0 0-2.2 2.73 4 4 0 0 0 .44 3.2c1.23 2.16 4.66 3.1 7.16 3.79l.36.1 3 .72c9.46 2.28 21.22 5.1 24.11 15.9a21 21 0 0 1-2.33 17.39 22.79 22.79 0 0 1-15.67 10.15.12.12 0 0 0-.09.08v4.68a1.88 1.88 0 0 1-1.88 1.88Z"></path><path fill="#ffc539" d="M180.45 23.52a.83.83 0 0 1 0-1.6c13.58-3.43 16.14-6 19.6-19.43a.83.83 0 0 1 .81-.62.81.81 0 0 1 .77.62c3.46 13.47 6 16 19.6 19.46a.83.83 0 0 1 0 1.6C207.66 27 205.09 29.48 201.63 43a.81.81 0 0 1-.8.61.81.81 0 0 1-.83-.61c-3.4-13.5-6-16-19.55-19.48ZM30.86 53.37c-.72 9-8.62 11.95-12.52 12.1 10.1 1.79 12.52 8.89 12.52 12.33 1.45-10 8.5-11.54 11.86-12.33a14.38 14.38 0 0 1-11.86-12.1ZM243.3 94.58a14.87 14.87 0 0 0-4 .58 19.08 19.08 0 0 0-17.9-12.47 18.78 18.78 0 0 0-18.54 14.83 11.73 11.73 0 0 0 1.5 23.38h41.35a11.86 11.86 0 0 0 12-11.74v-.45a14.26 14.26 0 0 0-14.41-14.13Z"></path><path fill="#e9133b" d="M339.93 176.81v-.88l-36.3.22c-4.33-20.82-15.53-23.94-16.91-24.24a17.7 17.7 0 0 0-3.25-.3l-68.9-.07c-2-11.08-3.89-21.74-5.38-30.14h37.22a12.15 12.15 0 0 0 12.17-12.1v-.46a14.6 14.6 0 0 0-14.69-14.53 14.16 14.16 0 0 0-4 .59 19.4 19.4 0 0 0-18.2-12.85 19.19 19.19 0 0 0-18.9 15.25 12.19 12.19 0 0 0-9.3 6.48h-21.37c-2-37.15-26.88-66.86-58.31-68.58-.8 0-19.89-.07-27.09-.08H84a61.21 61.21 0 0 0-6.2.52A12.17 12.17 0 0 0 68 23.18a19.32 19.32 0 0 0-36.2-5.73A14.65 14.65 0 0 0 11.93 23 12.36 12.36 0 0 0 .17 33a12.13 12.13 0 0 0 9.92 14 11.23 11.23 0 0 0 2.08.17h36.44A71.15 71.15 0 0 0 34.78 60c-1.18-1.63-2-3.85-2.82-7.21a.9.9 0 0 0-.87-.68.91.91 0 0 0-.88.68c-2.1 8.2-3.67 9.76-11.93 11.86a.89.89 0 0 0-.64 1.1.92.92 0 0 0 .64.64c4.8 1.22 7.34 2.26 9 4.53a77.17 77.17 0 0 0-9.71 37.69 75.71 75.71 0 0 0 23.72 55.55c-12.54 3.46-20.09 8.05-20.09 13.15a1.31 1.31 0 0 0 0 .28v27.25c.6 6.54 12.56 10.87 23 13.43v18.56c.64 6.82 13.58 11.24 24.34 13.75 14.89 3.48 34.59 5.38 55.4 5.38s40.52-1.9 55.4-5.38c10.75-2.51 23.72-6.92 24.33-13.76v-6.14h21.32c9.21 0 16.15-1.32 21.57-4.48h75.45a10.76 10.76 0 0 0 6.47-2.23c8.06-5.9 12.1-22.65 11.45-47.16ZM203.61 99h.71l.12-.69a17.49 17.49 0 0 1 34-2l.26.91.9-.32a12.84 12.84 0 0 1 16.4 7.74 12.64 12.64 0 0 1 .76 4.22v.46a10.35 10.35 0 0 1-10.37 10.3H204.3a10.29 10.29 0 1 1-.7-20.57Zm3.51 102.29 9.45 16.24-6.92 4L200 205a1.36 1.36 0 0 0-1.18-.68 1.37 1.37 0 0 0-.65.17l-8.14 4.33-2.51-35.27 28.22 21.6-8.06 4.29a1.54 1.54 0 0 0-.63 1.92Zm-50.72 17.28c10.75-2.5 23.72-6.92 24.33-13.75v-4.16a64.19 64.19 0 0 1 7 2.28l.48 6.68a1.36 1.36 0 0 0 .7 1.1 1.51 1.51 0 0 0 1.31 0l4.86-2.59a2.55 2.55 0 0 1 .19.91c0 6.74-28.19 13.94-70.23 14a210 210 0 0 0 31.27-4.5Zm-53.4 3.71v-25.34c8.62-.05 15.46.08 23.14-.58v25.37c-7.56.63-14.36.49-23.19.55Zm24.85-.69v-25.38c7.25-.66 15.39-2.06 21.43-3.18v25.38c-5.93 1.11-14.07 2.51-21.48 3.18Zm23.15-3.51v-25.36a112.32 112.32 0 0 0 15.94-4.21v25.29a106.53 106.53 0 0 1-16 4.28Zm17.64-4.94v-25.28c4.94-1.92 8.51-4.1 10.47-6.42v23.25c-.34 2.87-4 5.82-10.52 8.46Zm12.14-14.24v-1.57q3.67.88 6.78 1.88l.13 1.85a68.2 68.2 0 0 0-7-2.15Zm7-27.4a1.37 1.37 0 0 0-1.47-.12 1.35 1.35 0 0 0-.71 1.29l1.75 24.52q-3.09-1-6.64-1.86v-18.07c0-6-10.4-11.28-27.1-14.83 10.38-12.27 17.17-29.22 18.42-47.7h3c.76 4.21 5.37 24 26.09 24.44 3 16.89 6.36 37.25 8.58 49.12ZM86 182.11h28.46c13.42 0 25.64-5.85 35.35-15.48 14 2.62 22.18 6.2 22.18 9.57 0 6.38-29.14 13.46-71 13.46s-71-7.09-71-13.46c0-2.81 5.75-5.78 15.82-8.2a65 65 0 0 0 39.28 14.07h.76Zm47.22-5.79a46.19 46.19 0 0 1-18.78 4H100.9a64 64 0 0 0 11.65-4Zm-17-1.79a66.91 66.91 0 0 0 9.4-6.06h20.08a52.16 52.16 0 0 1-8.83 6.06Zm31.5-7.85H127.8a71.4 71.4 0 0 0 9.71-9.88h18.71a63.51 63.51 0 0 1-8.56 9.88Zm22.8-58.05c0 17.86-4.88 34-13 46.45h-18.59a77.61 77.61 0 0 0 0-92.79h17.9c8.49 12.22 13.58 28.16 13.58 46.34Zm-14.84-48.17h-18.11a72.13 72.13 0 0 0-9.37-9.61h18.63a62.44 62.44 0 0 1 8.77 9.61Zm-10.87-11.39H126a66.88 66.88 0 0 0-10.15-6.56h18.65a55.22 55.22 0 0 1 10.2 6.56ZM113.72 37a53.05 53.05 0 0 1 16.8 3.73h-18.37a64.71 64.71 0 0 0-11.06-3.78c6.4.05 12.23.05 12.63.05ZM12.17 45.33A10.33 10.33 0 0 1 1.84 35 10 10 0 0 1 2 33.26a10.54 10.54 0 0 1 10.45-8.52 1 1 0 0 0 .9-.55 12.85 12.85 0 0 1 17.35-5.33c.32.17.63.35.93.55a1 1 0 0 0 .83.12l.46-.17.18-.36a17.49 17.49 0 0 1 33.23 5 1 1 0 0 0 .86.86 10.38 10.38 0 0 1 8.9 10.87v.16a64.54 64.54 0 0 0-24.71 9.41Zm9.65 20.19c5.44-1.72 7.52-3.78 9.25-9.2 1.73 5.41 3.81 7.48 9.25 9.2-5.43 1.72-7.52 3.78-9.25 9.19-1.73-5.4-3.81-7.47-9.25-9.19Zm-2.42 43.09a75.56 75.56 0 0 1 9-35.9 29.88 29.88 0 0 1 1.83 5.53.91.91 0 0 0 1.75 0c2-7.55 3.43-9.47 10.09-11.36a67.92 67.92 0 0 0-14.53 42.41c0 35.29 25.89 64 57.7 64s57.69-28.73 57.69-64-25.88-64-57.69-64c-16.19 0-30.84 7.45-41.3 19.39-3.84-1-6.23-1.84-7.91-3.3C47.94 46.7 65.34 37.3 84.75 36.92h2c36.38.44 65.85 32.42 65.85 71.69 0 39.53-29.87 71.69-66.58 71.69S19.4 148.14 19.4 108.61Zm65.81-61.49C116 47.12 141 75 141 109.29s-25 62.21-55.79 62.21-55.84-27.9-55.84-62.17 25.06-62.21 55.84-62.21ZM42.86 165.57l1.06.89c-9.62 2.46-15.75 5.71-15.75 9.71 0 9.89 37.49 15.25 72.78 15.25s72.78-5.34 72.78-15.25c0-4.85-9-8.62-22.4-11.19.31-.31.61-.66.9-1 16 3.23 26 7.9 26 13.2 0 9.77-34.6 17.67-77.27 17.67S23.73 187 23.73 177.23c0-4.45 7.21-8.52 19.13-11.66Zm58.37 31.34v25.34H101c-8.71 0-15.65-.37-23.12-.92V196c7.64.58 14.61 1 23.12 1Zm-36.74 23.26c-3.11-.38-6.07-.8-8.9-1.27v-25.35s8.23 1.24 15.08 2c1.4.14 4 .23 5.43.35v25.37s-1.72 0-2.64-.09c-2.5-.21-4.94-.46-7.3-.73Zm-30.71-6.86c-6.79-2.68-10.6-5.69-10.87-8.62v-23.25c2 2.39 5.74 4.62 10.87 6.59Zm1.7.66v-25.31a120.74 120.74 0 0 0 18.45 4.58v25.37A115.79 115.79 0 0 1 35.48 214Zm21.36 31.34c-6.8-2.69-10.6-5.7-10.88-8.64v-18c3.39.78 7 1.48 10.88 2.1ZM77 250.57a115.57 115.57 0 0 1-18.44-4.67V221l2.1.31A127.29 127.29 0 0 0 77 225.2Zm21 2.64-1.45-.13q-3.75-.33-7.31-.72l-1.7-.21c-3.1-.39-6.06-.81-8.89-1.29v-25.33s8.23 1.25 15.07 2c1.41.14 2.82.26 4.25.38Zm26.28 1H124q-13.06 0-24.31-.87V228c7.64.57 15.82.89 24.31.89h.27ZM77.7 223.14c7.14.51 14.61.79 22.25.81 7.91.6 16.14.92 24.34.92 35.78 0 72.78-5.93 72.78-15.81a4.12 4.12 0 0 0-.4-1.76l1.92-1 2.64 4.52c-3.48 8.9-36.57 15.88-76.94 15.88a286.21 286.21 0 0 1-46.59-3.56Zm72.82 30.07c-7.51.63-15.71 1-24.53 1V228.9c8.62 0 16.86-.41 24.53-1.07Zm21.75-2.81c-5.93 1.1-12.62 2-20 2.67v-25.38c7.26-.66 14-1.57 20-2.67Zm17.65-4.62a106.16 106.16 0 0 1-16 4.28v-25.37a109.7 109.7 0 0 0 15.94-4.21Zm12.17-9.43v.33c-.27 2.87-4 5.81-10.45 8.46v-25.29c4.94-2 8.51-4.1 10.47-6.44Zm23-7.47h-21.34v-13.74l4.46 7.68a1.35 1.35 0 0 0 1.18.69 1.56 1.56 0 0 0 .67-.18l7.72-4.43a1.36 1.36 0 0 0 .5-1.86l-9.44-16.24 8.28-4.4a1.33 1.33 0 0 0 .71-1.08 1.29 1.29 0 0 0-.52-1.18l-5.46-4.14c-2.21-11.6-5.93-33.84-9.08-51.79v-.1l-.06-.17a.71.71 0 0 0-.1-.14l-.11-.12-.15-.1-.15-.06h-.27c-22.16 0-25.06-22.73-25.18-23.72a.88.88 0 0 0-1-.79h-3.55c.07-1.44.11-2.88.11-4.32 0-1 0-2-.06-3.07h20.49a12 12 0 0 0 11.56 15.82h3c3 16.74 7.66 42.94 11.29 63 5.29 29.24 8.65 39.47 25.51 39.47a.9.9 0 0 0 .19-1.79h-.19c-14.87 0-18.24-7.64-23.72-38-1.7-9.4-3.64-20.18-5.52-30.7l50.36.06c-6.78 6.36-8.28 14.53-10.87 28.66-.43 2.33-.88 4.8-1.39 7.46-3.46 17.79-11.71 26.48-11.8 26.56a.9.9 0 0 0 0 1.26.85.85 0 0 0 .64.25 1 1 0 0 0 .65-.26c.35-.36 8.69-9.07 12.26-27.48.52-2.66 1-5.14 1.4-7.46 2.7-14.65 4.17-22.73 11.71-28.84l.09-.11h10.29c-4.52 2.65-9.88 9-12.46 23.8-7.05 40-13.23 51.63-40.68 51.63Zm24.26-4.49c9.46-7.29 13.74-21.74 18.14-46.89 3.29-18.86 11-23.08 15.15-23.95a9.8 9.8 0 0 1 3.7.1c1.42.31 13.84 3.8 16.67 30.13 2.3 21.75 5.28 35.75 13 40.61Zm78.15-1.85a8.77 8.77 0 0 1-8.23 1.41c-8.54-2.77-11.86-16.69-14.27-38.34h10.31c-.43 3.58-.23 8.21 2.59 11.76 2.17 2.74 5.58 4.38 10.11 4.94-3.19 15.1-9 16.7-9.12 16.73a.89.89 0 0 0 .19 1.77h.18c.29-.06 7.3-1.63 10.73-19.09a.06.06 0 0 1 0-.06v-.13a.43.43 0 0 0 0-.16.77.77 0 0 0-.07-.16l-.08-.15-.13-.12-.14-.11-.15-.07H329.19c-4.53-.34-7.84-1.81-9.89-4.34-2.68-3.4-2.61-8.07-2.07-11.4a.91.91 0 0 0-.75-1h-11.69v-.24c-.22-2-.49-3.89-.8-5.66l34.18-.21c.68 31.41-6.39 41.47-10.7 44.67ZM112.12 104.85a.9.9 0 0 1 1.28-1.24 24.79 24.79 0 0 1 6.25 11 29.81 29.81 0 0 1-3.4 24.57A31.29 31.29 0 0 1 102.41 151a1.5 1.5 0 0 0-.85 1 10.86 10.86 0 0 1-10.63 8.11.9.9 0 0 1-.18-1.79h.18a9.08 9.08 0 0 0 8.83-6.78 3.26 3.26 0 0 1 1.86-2.17 29.42 29.42 0 0 0 13.07-11.18 28.08 28.08 0 0 0 3.18-23.14 23.23 23.23 0 0 0-5.75-10.2Zm66.78-81.2c14.82 3.75 17.6 6.51 21.36 21.18a.89.89 0 0 0 .87.67.91.91 0 0 0 .88-.67c3.75-14.67 6.54-17.44 21.36-21.18a.9.9 0 0 0 0-1.74C208.55 18.17 205.76 15.4 202 .73a.91.91 0 0 0-.88-.67.89.89 0 0 0-.87.67c-3.77 14.67-6.54 17.44-21.36 21.18a.9.9 0 0 0 0 1.74Zm22.23-19.24c3.31 11.49 6.92 15.07 18.5 18.37-11.57 3.29-15.18 6.92-18.5 18.37-3.3-11.49-6.92-15.07-18.5-18.37 11.58-3.29 15.19-6.88 18.5-18.37Zm-141.52 88a18.84 18.84 0 0 0 3.69 14.28c4.49 5.36 11 7 17.36 8.59l1.8.45c1 .29 2 .53 3.11.8 4.56 1.06 9.28 2.18 9.66 6.67-.26 4.76-5 6.92-9.66 6.92h-.13c-4.88 0-10.24-2.49-10.45-7.74a1.88 1.88 0 0 0-1.85-1.86H60.42a1.88 1.88 0 0 0-1.34.56 1.81 1.81 0 0 0-.53 1.34c.21 11.12 7.44 19.55 18.84 22l.09.08v4.82a1.88 1.88 0 0 0 1.88 1.88h11.57a1.9 1.9 0 0 0 2-1.82v-4.73a.12.12 0 0 1 .09-.08 22.79 22.79 0 0 0 15.67-10.15A21 21 0 0 0 111 117c-2.89-10.79-14.65-13.62-24.11-15.89-1-.24-2-.49-3-.72l-.36-.1c-2.5-.7-5.93-1.63-7.16-3.8A3.92 3.92 0 0 1 76 93.3a4.45 4.45 0 0 1 2.24-2.74A13.18 13.18 0 0 1 90 90.32a6.5 6.5 0 0 1 3.68 5.38 1.88 1.88 0 0 0 1.88 1.75h12.4a1.94 1.94 0 0 0 1.37-.57 1.88 1.88 0 0 0 .52-1.35c-.26-10.45-6.56-18.09-16.8-20.44l-.13-.09v-5.71A1.9 1.9 0 0 0 91 67.4H79.37a1.89 1.89 0 0 0-1.89 1.89v5.51a.09.09 0 0 1-.09.08 24.5 24.5 0 0 0-11 4.77c-3.64 2.69-6.08 7.32-6.77 12.7Zm18.12-15.79a1.88 1.88 0 0 0 1.55-1.85v-5.5a.11.11 0 0 1 .09-.09h11.56a.09.09 0 0 1 .1.08V75a1.89 1.89 0 0 0 1.48 1.83c9.55 2.18 15.18 9 15.43 18.78l-.08.08H95.49a.09.09 0 0 1-.09-.09 8.29 8.29 0 0 0-4.64-6.83 14.87 14.87 0 0 0-13.47.23 6.15 6.15 0 0 0-3.11 3.82 5.8 5.8 0 0 0 .63 4.53c1.57 2.78 5.42 3.84 8.24 4.61l.37.11 3 .73c9.46 2.27 20.18 4.85 22.79 14.61a19.34 19.34 0 0 1-2.12 16 21 21 0 0 1-14.43 9.34 1.87 1.87 0 0 0-1.66 1.81v4.69a.09.09 0 0 1-.09.09H79.38a.11.11 0 0 1-.09-.09v-4.82a1.85 1.85 0 0 0-1.49-1.83c-10.59-2.24-17.24-10-17.44-20.26h-.9l1-.09h12.7a.08.08 0 0 1 .08.09c.26 6.43 6.53 9.42 12.24 9.46h.14c5.31 0 11.14-2.67 11.46-8.58v-.33c-.49-5.72-6.34-7.1-11-8.2-1.06-.25-2.07-.49-3-.77l-1.86-.48c-6.33-1.59-12.29-3.1-16.41-8-2.69-3.26-3.88-7.91-3.28-12.93s2.81-9.1 6-11.49a22.76 22.76 0 0 1 10.2-4.4ZM209.39 223.5ZM160.71 46.66c7.91 2 9.41 3.51 11.44 11.35a.8.8 0 0 0 1 .58.78.78 0 0 0 .58-.58c2-7.84 3.54-9.34 11.44-11.36a.79.79 0 0 0 .59-.77.78.78 0 0 0-.6-.77c-7.91-2-9.4-3.51-11.44-11.37a.81.81 0 0 0-1.55 0c-2 7.86-3.52 9.35-11.43 11.37a.78.78 0 0 0-.59.94.8.8 0 0 0 .59.6ZM173 36.54c1.73 5.58 3.78 7.62 9.4 9.35-5.62 1.72-7.67 3.75-9.4 9.34-1.73-5.59-3.79-7.62-9.41-9.34 5.55-1.73 7.61-3.77 9.41-9.35ZM56.84 112.35a30.32 30.32 0 0 1-6-21.74c1.1-9.66 5.6-14.39 10.31-18.09A29.18 29.18 0 0 1 69 67.89a.91.91 0 0 1 1.15.56.9.9 0 0 1-.48 1.11 27.33 27.33 0 0 0-7.4 4.44c-5.1 4-8.68 8.39-9.65 16.88a28.47 28.47 0 0 0 5.64 20.35l.77.93a.89.89 0 0 1-.1 1.26.87.87 0 0 1-.57.22.89.89 0 0 1-.68-.31Z"></path></g></svg>