<svg xmlns="http://www.w3.org/2000/svg" viewBox="0 0 24 18" id="svg_icon_blog" width="100%" height="100%"><g><path fill="#fff" d="M23 6.83c0 3.52-3.46 6.08-6.08 5.7-.58 1.64-2.92 4.47-4.82 3.71a7.07 7.07 0 0 0 1.84-4.95c-.14-.64-1.94-.45-3.68.89C9.08 14.37 6.44 17 5 17c-.77 0-1-1.4-1-1.52 0-.87 4.34-4 5.26-4.42A4.75 4.75 0 0 0 10 9c0-.82-.41-1-.66-1-1.22 0-3 1.74-3.94 3.59a.52.52 0 0 1-.52.28c-.8 0-1.29-1.11-1.16-1.26a6.16 6.16 0 0 0 .74-.88c1.69-2.88 1.82-5.9 1.21-5.9-1 0-2.75 3.12-2.75 8.15 0 2.34.51 3.67.87 4 .11.11 0 .49-.42.63-.81.27-2.14-.63-2.31-3C.64 8 3.63 2.07 6.3 2.54c.58.1 1.51 1.27.6 4.71a3.22 3.22 0 0 1 1.32-.68c1.8-.45 3.56.62 2.74 3.71 0 0 2.59-1.08 3.55-.52s.85 2.59-.14 4.39c1.69-1 2.4-3.69 2.4-3.69a4.23 4.23 0 0 0 4.09-4.25A4.33 4.33 0 0 0 16.25 2c-2.66 0-4.64 2-5.8 4.22-.08.16-.77-.18-.77-.66 0-1.56 2.84-4.42 6.5-4.56C19.07.9 23 2.12 23 6.83Zm-9.58-2.52a2 2 0 0 0 .07 1.93 43.63 43.63 0 0 0 4.45-1 1 1 0 0 0 .55-.71c-.49-.02-4.99-.24-5.07-.22Zm.81 2.41a1.66 1.66 0 0 0 .06 1.63A37.68 37.68 0 0 0 18 7.54a.87.87 0 0 0 .47-.61c-.36-.04-4.17-.22-4.24-.21Z"></path></g></svg>