<svg xmlns="http://www.w3.org/2000/svg" viewBox="0 0 18 18" id="svg_icon_instagram" width="100%" height="100%"><g><path fill="#fff" d="M11.85 8.41a2.88 2.88 0 0 1 .06.59 3 3 0 0 1-2.32 2.85A2.91 2.91 0 0 1 6.09 9 2.91 2.91 0 0 1 9 6.09a2.72 2.72 0 0 1 .58.06 2.93 2.93 0 0 1 2.27 2.26Zm4.9-3.29v7.76a3.88 3.88 0 0 1-3.87 3.87H5.12a3.88 3.88 0 0 1-3.87-3.87V5.12a3.88 3.88 0 0 1 3.87-3.87h7.76a3.88 3.88 0 0 1 3.87 3.87ZM13.36 9A4.36 4.36 0 1 0 9 13.36 4.36 4.36 0 0 0 13.36 9Zm.77-4.17a.9.9 0 0 0-1-1 1 1 0 0 0-1 1 .91.91 0 0 0 1 1 1 1 0 0 0 1-1Z"></path></g></svg>