<svg xmlns="http://www.w3.org/2000/svg" viewBox="0 0 150 150" id="svg_2026" width="100%" height="100%"><defs><linearGradient id="sf_a" x1="0" x2="0" y1="0" y2="150" gradientUnits="userSpaceOnUse"><stop stop-color="#c39f7b"></stop><stop offset="1" stop-color="#a5683b"></stop></linearGradient></defs><g><path fill="url(#sf_a)" fill-rule="evenodd" d="M10.72 69.7c-4.38-6-4.88-6.85-5.14-14.3 4.17 2.14 6.8 10.01 5.14 14.3Zm20.6-49c5.28-.1 6-.21 10.35-3.28-3.02-1.48-8.67.44-10.35 3.24Zm-13.5 61.5c4-7.75 4.37-8.87 3.28-17.57-4.44 3.26-6.02 12.89-3.28 17.57Zm27.3-74.68c-3.84 1.21-4.24 1.6-6.72 4.73 2.48.25 6.21-2.25 6.72-4.73Zm-7.79 2c-3.14 2.54-3.36 3-4.51 6.87 2.4-.72 4.94-4.39 4.51-6.91Zm-5.45 3.07c-3.4 3.48-3.6 4.11-4.44 8.86 2.78-1.19 5.31-5.97 4.44-8.9Zm-5.34 5.5c-3 3.84-3.11 4.49-3.41 9.31 2.63-1.51 4.61-6.54 3.41-9.35Zm-5.43 6.4c-2.48 4.18-2.52 4.85-2.23 9.66 2.43-1.82 3.77-7.06 2.23-9.7Zm-4.37 6c-2 4.44-1.93 5.11-1.07 9.85 2.2-2.12 2.91-7.48 1.07-9.92Zm-4.93 5.8c-1.69 6.09-1.52 6.93.5 12.87 2.44-3.16 2.32-10.16-.5-12.94ZM8.37 46.31C7.67 52.59 8 53.4 10.91 59c1.92-3.45.7-10.38-2.54-12.69ZM12 80.1c.94-4.51-3-11.84-7.42-13.26C6 74.15 6.66 74.94 12 80.1Zm3.41 10.41C15.45 85.15 9.41 77.62 4 77c3.29 8 4.19 8.76 11.37 13.51ZM47 124.57c-4.42-4.82-16.1-6.47-21.46-2.53 9.69 4.38 11.14 4.32 21.46 2.53Zm-10.12 6.13c10.34 2.33 11.75 2 21.53-1.88-5.31-3.82-17.09-3.07-21.53 1.88Zm13.67 6.41c10.6.16 11.9-.48 20.68-6.26-5.98-2.66-17.35.5-20.68 6.26Zm88.73-67.41c4.38-6 4.87-6.85 5.14-14.3-4.17 2.14-6.8 10.01-5.14 14.3Zm-30.95-52.32c4.35 3.08 5.07 3.18 10.35 3.28-1.68-2.8-7.33-4.72-10.35-3.28Zm5.51 4.28c3.73 3.38 4.39 3.56 9.35 4.25-1.31-2.82-6.36-5.26-9.35-4.25Zm12 18.29c2.46 5.49 3.1 6 8.19 9.14-.03-3.72-4.38-8.81-8.15-9.09Zm2.1 8.05c1.81 6.92 2.46 7.65 7.82 12.33.65-4.33-3.46-11.18-7.82-12.33Zm1.6 8.78c.57 7.14 1.08 8 5.54 13.5 1.4-4.16-1.45-11.6-5.54-13.47Zm2.64 25.39c2.74-4.68 1.16-14.31-3.28-17.57-1.09 8.73-.69 9.85 3.28 17.6ZM111.6 12.25c-2.48-3.13-2.88-3.52-6.72-4.73.51 2.48 4.24 4.98 6.72 4.73Zm5.58 4.1c-1.15-3.83-1.37-4.33-4.51-6.87-.43 2.52 2.12 6.19 4.51 6.87Zm5.38 5.06c-.84-4.75-1-5.38-4.44-8.86-.87 2.92 1.66 7.71 4.44 8.86Zm4.31 5.95c-.3-4.82-.42-5.47-3.41-9.31-1.19 2.81.78 7.84 3.41 9.31Zm4.25 6.75c.3-4.81.26-5.48-2.23-9.66-1.53 2.64-.2 7.88 2.23 9.66Zm2.14-3.69c-1.84 2.44-1.13 7.81 1.07 9.85.87-4.75.9-5.41-1.07-9.85Zm4.93 5.8c-2.82 2.78-2.94 9.82-.5 12.87 2.02-5.94 2.19-6.78.5-12.87Zm.9 22.73c2.94-5.55 3.24-6.36 2.54-12.64-3.24 2.31-4.46 9.24-2.54 12.69ZM138 80.1c5.31-5.16 5.94-5.95 7.43-13.26-4.43 1.42-8.33 8.75-7.43 13.26Zm-3.4 10.41C141.81 85.76 142.71 85 146 77c-5.41.63-11.45 8.15-11.37 13.51ZM103 124.57c10.36 1.79 11.81 1.85 21.46-2.53-5.4-3.94-17.08-2.29-21.46 2.53Zm-11.77 4.51c9.79 3.86 11.18 4.21 21.53 1.89-4.48-4.97-16.26-5.71-21.57-1.89Zm-28.3-10.24V120h5.22v-1.48h-2.97L66.7 117a3.64 3.64 0 0 0 1.3-2.51 2.22 2.22 0 0 0-.76-1.78 2.66 2.66 0 0 0-1.81-.66 2.84 2.84 0 0 0-1.53.42 2.7 2.7 0 0 0-1 1.22l1.29.76a1.35 1.35 0 0 1 1.3-.91 1 1 0 0 1 .73.27 1 1 0 0 1 .28.74 2.54 2.54 0 0 1-.89 1.55Zm13.16 0V120h5.22v-1.48h-2.97l1.53-1.52a3.64 3.64 0 0 0 1.28-2.49 2.25 2.25 0 0 0-.76-1.78 2.66 2.66 0 0 0-1.82-.66 2.89 2.89 0 0 0-1.53.42 2.83 2.83 0 0 0-1 1.22l1.29.76a1.36 1.36 0 0 1 1.3-.91 1 1 0 0 1 1 1 2.59 2.59 0 0 1-.89 1.55ZM86.64 112l-1.73 2.52a2.78 2.78 0 0 1 2 .79 2.56 2.56 0 0 1 .76 1.91 2.66 2.66 0 0 1-.79 2 3.1 3.1 0 0 1-4.07 0 2.58 2.58 0 0 1-.78-2 2.71 2.71 0 0 1 .46-1.57l2.39-3.65Zm-1.83 4a1.32 1.32 0 0 0-.92.34 1.23 1.23 0 0 0-.37.92 1.2 1.2 0 0 0 .37.92 1.28 1.28 0 0 0 .92.34 1.32 1.32 0 0 0 .93-.34 1.19 1.19 0 0 0 .37-.92 1.16 1.16 0 0 0-.37-.91 1.33 1.33 0 0 0-.93-.35Zm-10.72-2.81a4.8 4.8 0 0 1 .83 2.93 4.86 4.86 0 0 1-.83 3 2.67 2.67 0 0 1-2.29 1.1 2.71 2.71 0 0 1-2.3-1.1 4.86 4.86 0 0 1-.83-3 4.78 4.78 0 0 1 .83-2.93 2.7 2.7 0 0 1 2.3-1.19 2.67 2.67 0 0 1 2.29 1.16ZM73 118a3.58 3.58 0 0 0 .41-1.89 3.65 3.65 0 0 0-.41-1.9 1.41 1.41 0 0 0-2.37 0 3.76 3.76 0 0 0-.4 1.9 3.71 3.71 0 0 0 .4 1.9 1.33 1.33 0 0 0 1.19.65A1.3 1.3 0 0 0 73 118Zm2-97.81-1.28 2.31-2.49.42a.08.08 0 0 0 0 .14l1.83 1.79a.07.07 0 0 1 0 .07l-.39 2.62a.08.08 0 0 0 .12.08l2.23-1.29a.11.11 0 0 1 .08 0l2.4 1.3a.08.08 0 0 0 .12-.08L77.1 25a.09.09 0 0 1 0-.07l1.9-1.84a.08.08 0 0 0 0-.14l-2.65-.36a.07.07 0 0 1-.06-.05l-1.11-2.36a.08.08 0 0 0-.18-.01Zm11 5a.08.08 0 0 1-.07 0l-.78-1.67a.08.08 0 0 0-.15 0l-.9 1.63a.07.07 0 0 1-.06 0l-1.75.3a.08.08 0 0 0 0 .14l1.29 1.26a.06.06 0 0 1 0 .07l-.27 1.84a.08.08 0 0 0 .12.09l1.57-.94a.11.11 0 0 1 .08 0l1.7.92a.08.08 0 0 0 .11-.09l-.28-1.82a.07.07 0 0 1 0-.06l1.29-1.29a.08.08 0 0 0 0-.14Zm-20.4 0a.07.07 0 0 1-.06 0l-.79-1.67a.09.09 0 0 0-.15 0l-.9 1.63a.07.07 0 0 1-.06 0l-1.75.3a.08.08 0 0 0 0 .14l1.29 1.26a.06.06 0 0 1 0 .07l-.27 1.84a.08.08 0 0 0 .12.09l1.57-.91a.11.11 0 0 1 .08 0l1.7.92a.08.08 0 0 0 .11-.09l-.28-1.82a.07.07 0 0 1 0-.06l1.29-1.29a.08.08 0 0 0 0-.14Zm28.59 1.5L93.43 28a.07.07 0 0 1-.05 0l-1.48.25a.08.08 0 0 0 0 .14l1.08 1.06a.11.11 0 0 1 0 .07l-.24 1.56a.08.08 0 0 0 .12.08l1.32-.76a.06.06 0 0 1 .08 0l1.43.77a.08.08 0 0 0 .12-.09l-.24-1.53a.11.11 0 0 1 0-.07l1.08-1.09a.08.08 0 0 0 0-.13l-1.57-.22a.08.08 0 0 1-.07 0l-.66-1.41a.08.08 0 0 0-.16.04ZM55 26.67 54.29 28h-.06l-1.48.25a.08.08 0 0 0 0 .14l1.09 1.06a.1.1 0 0 1 0 .07l-.24 1.56a.08.08 0 0 0 .12.08l1.28-.68a.06.06 0 0 1 .08 0l1.42.77a.08.08 0 0 0 .12-.09l-.24-1.53a.11.11 0 0 1 0-.07l1.08-1.09a.07.07 0 0 0 0-.13l-1.57-.22a.07.07 0 0 1-.06 0l-.67-1.41a.08.08 0 0 0-.16-.04ZM41.23 60.5l6.38 15.33h-4.12l-1.19-3h-5.94l-1.13 3h-4l6.4-15.33Zm.05 9.35-1.91-5.26-1.95 5.26Zm10 6h3.18l2.54-7.3 2.9 7.28H63l6.46-15.33H64.9L61.14 69l-2.69-6.15h-2.79L53.1 69l-3.76-8.5h-4.82ZM106.7 65.1a8.61 8.61 0 0 1 .5 3 7.82 7.82 0 0 1-.73 3.46 6.56 6.56 0 0 1-2 2.43 9.12 9.12 0 0 1-2.74 1.36 10.58 10.58 0 0 1-3.15.46h-5.71V60.5h5.55a14.26 14.26 0 0 1 2.59.23 9 9 0 0 1 2.38.79 7.29 7.29 0 0 1 2 1.4 6.19 6.19 0 0 1 1.31 2.18Zm-3.35 3a5 5 0 0 0-.41-2.13 3.25 3.25 0 0 0-1.14-1.4 4.8 4.8 0 0 0-1.58-.71 7.32 7.32 0 0 0-1.87-.22h-1.86v9h1.76a6 6 0 0 0 3.66-1.06 4 4 0 0 0 1.44-3.46Zm10.86 4.65a2.78 2.78 0 0 1-1.53.4 4 4 0 0 1-1.83-.46 4.18 4.18 0 0 1-1.49-1.17L106.93 74a6.85 6.85 0 0 0 2.54 1.62 8.92 8.92 0 0 0 3.21.59 6.63 6.63 0 0 0 4.17-1.31 4.51 4.51 0 0 0 1.7-3.8 3.93 3.93 0 0 0-.32-1.59 4.14 4.14 0 0 0-.74-1.16 4.69 4.69 0 0 0-1.16-.83 11.1 11.1 0 0 0-1.22-.58l-1.33-.45a9.79 9.79 0 0 1-1-.34 5.73 5.73 0 0 1-.71-.34 1.32 1.32 0 0 1-.51-.48 1.29 1.29 0 0 1-.15-.64 1.26 1.26 0 0 1 .64-1.18 3.15 3.15 0 0 1 1.51-.35 3.46 3.46 0 0 1 1.51.37 3.26 3.26 0 0 1 1.22.95l2.38-2.48a6.72 6.72 0 0 0-2.33-1.39 7.79 7.79 0 0 0-2.7-.49 7.88 7.88 0 0 0-2.13.28 6.92 6.92 0 0 0-1.9.84 4.05 4.05 0 0 0-1.39 1.51 4.88 4.88 0 0 0-.2 3.93 3.22 3.22 0 0 0 .94 1.26 6.48 6.48 0 0 0 1.21.8 10.39 10.39 0 0 0 1.45.58l1.13.38c.23.08.51.2.85.34a2.5 2.5 0 0 1 .69.4 1.92 1.92 0 0 1 .35.46 1.11 1.11 0 0 1 .16.61 1.41 1.41 0 0 1-.59 1.26Zm-35.47 3.08 7 5.13-11.14-24.2-1.71 3.74-9 19.66 6.6-4.33 1.31-3.49-1.8-2.49h2.69L74.6 66l1.91 3.81h3L77.3 72.2ZM92.4 65.75a4.64 4.64 0 0 1-1 2.94 5.11 5.11 0 0 1-2.66 1.74l3.3 5.4h-4.58A57.56 57.56 0 0 0 84 70.66L79.59 60.5h6.16a10.66 10.66 0 0 1 2.46.27 7.62 7.62 0 0 1 2.11.86 4.11 4.11 0 0 1 1.53 1.64 5.27 5.27 0 0 1 .55 2.48Zm-4.15.07c0-1.29-.94-1.94-2.8-1.94h-2.24v4.05h2c2.02 0 3.04-.7 3.04-2.11Zm-9.44-18-2.58-3.36H74l3.64 4.76-3.86 4.94H76l2.76-3.6 2.73 3.6h2.34l-3.86-5 3.65-4.7h-2.16Zm7.89-2.07a4.68 4.68 0 0 1 3.52-1.55 4.84 4.84 0 0 1 4.64 5.1 4.71 4.71 0 0 1-8 3.76v5.32h-2V44.59l1.77-.37Zm.15 5.2a3.56 3.56 0 0 0 3 1.8c1.75 0 3-1.41 3-3.44s-1.23-3.45-3-3.45a3.57 3.57 0 0 0-3 1.81Zm19-1.64a5.28 5.28 0 1 1-5.27-5.2 5.11 5.11 0 0 1 5.25 5.19Zm-2 0a3.29 3.29 0 1 0-6.57 0 3.29 3.29 0 1 0 6.57 0Zm-56.12-8.86v11.17a.5.5 0 0 0 .19.31c.28.19.76-.17.76-.17.08-2.18 2.33-3.74 6.09-4.2 0-1-.39-1.24-1.2-1.24a7.22 7.22 0 0 0-3.18 1.12l-.26.18a.55.55 0 0 1-.53 0 .52.52 0 0 1-.27-.46v-1.82a.52.52 0 0 1 .26-.45h.09a10.1 10.1 0 0 1 4.07-1.17c2.68 0 4 1.34 4 4v4.52c0 .52.71 0 .87.09a.51.51 0 0 1 .26.44v1.03a.5.5 0 0 1-.18.39l-.06.05a2.31 2.31 0 0 1-1.57.58 2.15 2.15 0 0 1-2-1.07 6 6 0 0 1-3.39 1.16 2.93 2.93 0 0 1-2.8-1.91v.78a.49.49 0 0 1-.17.38l-.06.06a2.45 2.45 0 0 1-1.59.58 2.26 2.26 0 0 1-2.35-2.56V40.93l3-.72a.61.61 0 0 1 .02.24Zm3.9 11.25c0 .37 0 .6.75.6a4.56 4.56 0 0 0 2.39-1.11v-1.08c-2.06.3-3.14 1-3.14 1.59Zm12 .17Zm-4.07-11v11.4a2.26 2.26 0 0 0 2.36 2.56 2.42 2.42 0 0 0 1.58-.58l.15-.14c.11-.1.21-2.16 0-2.24s-.55.21-.86.06-.19-.34-.19-.51v-11a.48.48 0 0 0-.16-.36l-2.85.69s-.07.08-.07.1Zm9.74 3.24a3.94 3.94 0 0 1 4 2.36 8 8 0 0 1 .7 3.27h-7.2a2.77 2.77 0 0 0 .67 1.65 3 3 0 0 0 2.29.82 6.57 6.57 0 0 0 4.16-1.6 6.11 6.11 0 0 1-1 3.08 5.7 5.7 0 0 1-3.46 1 5.16 5.16 0 0 1-5.3-5.53 4.82 4.82 0 0 1 5.1-5.07Zm-.12 2.36a2.38 2.38 0 0 0-2.21 1.66h4.42a2.31 2.31 0 0 0-2.25-1.68Zm38 46.36-1.57-.13-.21 2.76 1.38.11c1.41.11 2.16-.3 2.24-1.26s-.54-1.4-1.84-1.5ZM33.9 115.4l-4-4-4.89.48Zm3.45 1.52Zm-3.6-.1-11.39-4.62L20.65 99l-.52-4-1.6.2-1.18.15-5.86.75-3.94.5 7.3 10.82-2.18 11.94c3.03-.44 12.83-1.77 21.08-2.54Zm109.36-20.25-4.52-.57-5.88-.75-1.06-.13-2.08-.27-2.33 17.35-10.5 4.32c8.27.8 18.17 2.31 21.24 2.8l-2.17-11.92Zm-13.81-10v.2l-.78 5.81-.33 2.49-1 7.56-1.08 8c-4.83-.5-35-3.56-51.26-3.56-11.69 0-30.54 1.58-42 2.65l-3.71.35c-2.62.25-4.56.45-5.52.55L21.09 91.8l-.66-5.09v-.11h.25l2.26-.21h.14l1.13-.1h.08c9.39-.8 31.55-2.52 50.55-2.52 19.24 0 41.67 1.75 50.89 2.55l1.61.14h.54l1.08.1ZM54 89.71l-3.08.17q-.75 4-1.47 8h-.05q-1.35-3.88-2.72-7.74l-3.08.22c-.52 2.68-1 5.36-1.53 8q-1.27-3.85-2.58-7.71l-3.23.35q2.3 5.74 4.49 11.51l2.85-.23q.85-4.09 1.76-8.19c1 2.61 2 5.23 2.93 7.84l2.84-.18q1.4-6.03 2.87-12.04Zm5.56 11.63q-.22-5.94-.46-11.87l-3 .13q.26 5.93.53 11.86c.97-.05 1.93-.08 2.9-.12Zm14.11-.29V89.18h-2.88c.05 2.58.09 5.16.14 7.74q-2.44-3.85-5-7.67c-1.12 0-2.25 0-3.37.09q.16 5.92.35 11.86l2.79-.07q-.12-3.87-.25-7.76h.06q2.52 3.83 5 7.68ZM88.15 89.4l-2.87-.08c0 2.58-.09 5.16-.13 7.74h-.06q-2.3-3.93-4.71-7.84h-3.37q0 5.93-.07 11.87h2.78v-7.76q2.39 3.92 4.69 7.85l3.26.1Zm11.63.6c-2.74-.17-5.49-.31-8.23-.42q-.26 5.92-.5 11.86c2.77.11 5.53.25 8.3.43l.15-2.45c-1.85-.11-3.7-.22-5.56-.3 0-.82.08-1.64.12-2.46 1.67.07 3.34.17 5 .27 0-.76.09-1.53.14-2.29-1.67-.11-3.35-.2-5-.28 0-.74.08-1.49.11-2.23 1.79.09 3.57.19 5.35.3Zm9.34 7.5a3.57 3.57 0 0 0 1.95-1 3.15 3.15 0 0 0 .85-1.94 3.46 3.46 0 0 0-.23-1.72 2.74 2.74 0 0 0-1-1.21 5.34 5.34 0 0 0-1.43-.72 8 8 0 0 0-1.71-.32c-1.55-.13-3.11-.25-4.66-.36q-.42 5.92-.83 11.85l2.82.2.36-4.7 1 .08q1.13 2.45 2.19 4.9l3.36.31c-.88-1.87-1.79-3.63-2.67-5.41Zm21-12.17h.2c.12-3.5-.69-7-2.57-9.1-1.37 4-2 6.37-2.09 8.68 2.76.24 4.39.4 4.46.41Zm9.74 9.49a43.32 43.32 0 0 0 4.14-5.46c-3.24-.28-7.22 1.81-10.1 4.66ZM113.78 15.1c11.7 10.62 18.34 22.84 21 35.21a63 63 0 0 1-1.06 30.21 66 66 0 0 1-3.5 9.55l-.45 3.43 2.53.32a65 65 0 0 0 6.4-28.23 65.91 65.91 0 0 0-6.8-29 64.5 64.5 0 0 0-19.06-22.88l-.09.1c-2.52-1.43-6.48-1.8-8.58-.39 4.32 2.17 5.11 2.24 9.61 1.68ZM82 130c1.15-.22 2.3-.46 3.43-.7l2.15-.45c8.45-1.71 23.5-7.82 29.8-17.64l-2-.19a72.64 72.64 0 0 1-8.65 7.43 49.44 49.44 0 0 0 7.2-7.55l-2-.19-.36.45-.67-.55-1.23-.11-.63.73 1.4 1.23c-.38.44-.77.86-1.17 1.28l-1.35-1.3c-.38.4-.77.8-1.17 1.18L108 115c-.41.41-.83.8-1.26 1.19l-1.26-1.39c-.41.37-.83.74-1.25 1.09l1.21 1.44-1.34 1.09-1.1-1.52c-.43.34-.88.68-1.33 1l1.11 1.52c-.47.34-.94.67-1.42 1l-1-1.56c-.46.31-.93.61-1.39.9l1 1.6c-.49.3-1 .6-1.48.88l-.94-1.63c-.47.27-1 .54-1.45.8l.87 1.66c-.5.27-1 .53-1.54.78l-.81-1.71c-.5.24-1 .47-1.51.69l.75 1.73c-.52.23-1.05.46-1.59.66l-.69-1.76c-.51.2-1 .39-1.56.58l.63 1.79c-.55.19-1.09.37-1.65.54l-.56-1.81c-.53.16-1.06.32-1.59.46l.49 1.83c-.56.15-1.11.3-1.68.43l-.43-1.86c-.53.13-1.08.24-1.62.35l.36 1.86q-.86.16-1.71.3l-.39-1.93c-.54.09-1.1.16-1.64.23l.22 1.89-1.72.17-.16-1.9c-.55 0-1.11.08-1.65.11l.08 1.9h-1.73v-1.9h-2.09l-.06 1.69-1.73-.19.11-1.52c-.55 0-1.11-.09-1.65-.15l-.16 1.42-1.69-.26.2-1.38c-.55-.08-1.1-.17-1.64-.27l-.26 1.4-1.69-.24.32-1.47-1.61-.39-.42 1.61-1.72-.27.54-1.79-1.58-.5-.61 1.81c-.55-.19-1.1-.38-1.64-.59l.68-1.76L57 123l-.73 1.74c-.54-.23-1.06-.47-1.59-.71l.8-1.71c-.49-.23-1-.48-1.49-.73l-.86 1.68c-.51-.26-1-.54-1.53-.82l.93-1.64q-.73-.41-1.44-.84l-1 1.61c-.49-.3-1-.62-1.46-.93l1-1.57c-.46-.3-.93-.62-1.37-.94l-1.1 1.53c-.47-.34-.93-.68-1.39-1l1.23-1.52c-.44-.34-.88-.69-1.3-1l-1.2 1.45-1.31-1.13 1.25-1.4-1.22-1.13-1.3 1.36c-.41-.4-.82-.81-1.22-1.22l1.34-1.3c-.38-.4-.77-.81-1.13-1.21l-1.39 1.25c-.39-.43-.77-.86-1.14-1.3l1.07-.9-3.72.33a49.91 49.91 0 0 0 9.52 9.41A62 62 0 0 1 34 111.05l-2.3.22c.13.13 2.17 2.26 4.42 4.4l1.23 1.22-.28-.3c.8.74 1.59 1.45 2.3 2 4.94 4.07 15.12 8.68 23.75 10.33l2.41.49a64.57 64.57 0 0 0 7 1.18c-2.24 1-6.74 5.39-11 10.3H62c.8.14 1.6.26 2.4.38h.51c1.47-1.75 3.93-4.52 6.09-6.68 1.77-1.78 3.31-3.13 3.85-3.13h.36c.5 0 2 1.38 3.84 3.18 2.15 2.15 4.61 4.89 6.08 6.61h.5q1.23-.18 2.43-.39l.26-.05h.25l-.06-.06c-.66-.64-1.31-1.38-2-2.13a27 27 0 0 0-3.51-3.49c-.45-.35-1-.9-1.68-1.5a19.45 19.45 0 0 0-3.76-3c1-.09 2-.22 3-.38a10.45 10.45 0 0 0-1.74.58c8.78 5.77 10.08 6.41 20.68 6.25-2.85-4.81-11.31-7.81-17.5-7.08ZM11.46 65.61a64.66 64.66 0 0 1 25.86-51.92l.13.15c2.43-1.75 6.92-2.32 9.2-.79-4.4 2.23-5.15 2.28-9.85 1.68a72.79 72.79 0 0 0-9.22 10c1.93-2.28 6-4 8.58-3.08-3.72 3.37-4.39 3.55-9.34 4.25a5 5 0 0 1 .33-.6q-1.77 2.4-3.29 4.87a10.21 10.21 0 0 1 1.72-1.54v-.42l2.34-.84a5.35 5.35 0 0 1 .67-.24L74.83 10.4l.29.11 45.24 16.39a9.1 9.1 0 0 1 3 1.11l.65.23v.17a8 8 0 0 1 3.31 3.82c-1.4-.37-2.44-.65-3.31-1v1.16c3.19 1.21 6.4 4.55 6.86 7.44-3.74-1.63-5.25-2.35-6.86-4.24V81c0 1.25 0 2.49-.14 3.72l-1.71-.14v-.31l-1.87-.13q.06-.83.09-1.65l1.87.06v-1.72h-1.87v-1.71h1.87v-1.71h-1.87V75.7h1.87V74h-1.87v-1.72h1.87v-1.71h-1.87v-1.71h1.87v-1.71h-1.87v-1.71h1.87v-1.71h-1.87V62h1.87v-1.69h-1.87v-1.72h1.87v-1.71h-1.87v-1.71h1.87v-1.71h-1.87v-1.71h1.87V50h-1.87v-1.67h1.87v-1.71h-1.87v-1.71h1.87V43.2h-1.87v-1.71h1.87v-1.71h-1.87v-1.72h1.87v-1.71h-1.87v-1.71h1.87v-1.37c-.07-.12-.14-.22-.22-.34h-1.65v-1.71h.07l-1.41-.52.79-2.14-1.51-.56-.79 2.14-1.61-.59.79-2.13-1.61-.59-.79 2.13-1.6-.6.78-2.11-1.61-.59-.78 2.11-1.61-.59.78-2.1-1.61-.59-.78 2.1-1.6-.59.76-2.09-1.61-.58-.76 2.07-1.61-.59.76-2.07-1.61-.58-.76 2.06-1.6-.59.75-2.05L99 21l-.76 2-1.61-.6.75-2-1.61-.58-.75 2-1.61-.59.75-2-1.61-.59-.74 2-1.61-.59.74-2-1.61-.59-.74 2-1.59-.6.73-2-1.61-.58-.73 2-1.61-.59.73-2-1.61-.58-.73 2-1.61-.6.73-2-1.62-.51-.72 2-1.49-.69.62-1.84-2-.72-.36 2.07h-1.5l-.42-2.16-1.25.34.59 2-1.45.53-.69-1.94-1.43.51.72 2-1.61.59-.72-2-1.61.58.72 2-1.6.59-.73-2-1.61.59.73 2-1.62.55-.73-2-1.61.58.73 2-1.63.62-.74-2-1.61.58.74 2-1.61.59-.75-2-1.58.63.75 2-1.6.6-.76-2-1.61.59.77 1.98-1.61.59-.76-2.06-1.63.59.76 2.06-1.6.59-.77-2.07-1.61.58.77 2.08-1.61.6-.76-2.13-1.61.58.77 2.1-1.61.59-.73-2.06-1.61.58.78 2.11-1.61.59-.78-2.11-1.65.62.78 2.13-1.6.59-.79-2.14-1.61.59.79 2.14-1.61.59-.66-1.79a9.67 9.67 0 0 1-1.36 1.15h1.09v1.45h-1.87v.39a5.42 5.42 0 0 1 1.19-.1c-.33.52-.62 1-.9 1.4h1.58v1.71h-1.87v1.72h1.87v1.71h-1.87v1.71h1.87v1.71h-1.87v1.71h1.87v1.71h-1.87v1.71h1.87v1.71h-1.87v1.71h1.87v1.69h-1.87v1.71h1.87v1.71h-1.87v1.72h1.87v1.71h-1.87v1.71h1.87v1.71h-1.87v1.71h1.87v1.71h-1.87v1.71h1.87v1.71h-1.87V71h1.87v1.71h-1.87v1.71h1.87v1.71h-1.87v1.71h1.87v1.72h-1.87v1.71h1.86c0 .55 0 1.11.05 1.66l-1.86.07q0 .8.09 1.59l-1.71.14c-.09-1.23-.14-2.47-.14-3.72V36c-1.48 1.61-3 2.33-6.5 3.84a5 5 0 0 1 .12-.53 62.83 62.83 0 0 0-2.2 6.25c1.55-2.8 4.47-5.37 7.11-5.6-2.43 5.42-3.08 6-8 9-.3 1.26-.55 2.53-.76 3.79-.17 1-.31 2-.43 2.94 1.31-3.49 4.17-6.92 7.14-7.69-1.78 6.8-2.44 7.63-7.53 12.08a66.08 66.08 0 0 0 0 7.45c.11-4.12 2.6-9.24 5.9-10.74-.57 7.13-1.09 8-5.54 13.49a5 5 0 0 1-.21-.78 67.12 67.12 0 0 0 2.61 13.3q.87 2.92 2 5.73l.71 5.09-2.06.26a64 64 0 0 1-6.48-28.27ZM122.37 30.5a8 8 0 0 1-1-.75l-.55 1.48h1.59ZM20 37.54a12.66 12.66 0 0 1 5.6-5V31.4c-.78.26-1.72.51-2.92.82q-1.5 2.64-2.68 5.32Zm98.11 75.1-.22.32c-.2.29-.4.56-.6.83-.4.55-.81 1.06-1.18 1.52l7.9-3.45c-1.29-.13-3-.31-5.07-.5-.29.44-.57.86-.85 1.28ZM24.32 84.87c-.06-2.31-.72-4.65-2.09-8.66-1.87 2.06-2.69 5.58-2.57 9.08.36 0 2-.2 4.66-.42Zm-8.1 9.22c-2.89-2.88-6.91-5-10.18-4.73a44.22 44.22 0 0 0 4.15 5.5Z"></path></g></svg>