<svg version="1" xmlns="http://www.w3.org/2000/svg" width="1621.333" height="1621.333" viewBox="0 0 1216.000000 1216.000000"><path d="M843.7 167.6c-.3.4-5 .8-10.4 1-5.4.2-12.3.6-15.3.9-9.9 1-15.5 1.7-17.9 2-1.3.3-4.5.7-7 1.1-2.5.3-5.7.8-7.1 1-1.4.3-3.8.7-5.5.9-3.4.5-3.9.7-14.5 3-4.1.9-8.6 1.9-10 2.2-5.1 1.1-5.5 1.2-5.5 1.3 0 .1-.8.3-1.7.5-7.7 1.5-39.5 11.8-45 14.6-1 .5-2.2.9-2.7.9-3.3 0-43.3 18.7-57.7 27-4.5 2.6-8.8 5-9.5 5.4-.8.3-2.7 1.5-4.4 2.6-1.6 1.1-4.3 2.7-5.9 3.6-1.6.9-6.5 4.1-10.8 7-4.3 3-8.2 5.4-8.7 5.4s-1.1.4-1.3.8c-.3.7-7.3 6.1-16.4 12.7-1.6 1.1-3.5 2.7-4.4 3.5-.9.8-3.2 2.8-5.3 4.3-2.1 1.6-4.8 3.8-6.1 5-1.3 1.2-5.9 5.3-10.2 9.2-4.3 3.8-11.9 11.2-16.9 16.4-12.3 12.8-13.6 14.2-16.6 18.1-1.5 1.9-3.5 4.4-4.6 5.5-3.3 3.5-19.3 26.1-19.3 27.3 0 .7-.4 1.2-1 1.2-.5 0-1 .6-1 1.4 0 .8-.6 2.1-1.3 2.8-.7.7-2.6 4-4.2 7.3-1.7 3.3-3.3 6.2-3.6 6.5-1 .9-10.2 25.1-10.4 27.5 0 .5-.4 2.3-.8 4-2.2 9.5-2.5 21.7-.6 27.2 4.4 12.9 20.8 27.2 33.1 28.9 4.4.6 8.8-.7 8.8-2.6 0-.4 2.5-5.2 5.5-10.5 3-5.4 5.5-9.9 5.5-10.1 0-.3 4.8-8.3 10.5-17.5.6-.9 2-3.4 3.2-5.7 1.2-2.2 2.8-4.6 3.5-5.3.7-.8 3.3-4.6 5.8-8.4 2.5-3.9 5-7.6 5.7-8.3.7-.7 1.3-1.6 1.3-2 0-.4 1.1-2.1 2.5-3.7 3.1-3.8 2.8-3.4 9.9-13 3.3-4.4 6.2-8.2 6.5-8.5.4-.3 1.9-2.1 3.5-4 10.6-13.1 16.7-19.9 29.7-32.9 9.5-9.6 18-17.5 24.2-22.6 2.7-2.2 6.3-5.3 8-6.8 1.8-1.5 7.9-6.2 13.7-10.5 5.8-4.2 10.7-8 10.8-8.4.2-.5 1-.8 1.8-.8s2.3-.9 3.4-2 2-1.7 2-1.3c0 .3.8-.1 1.8-.9 3.8-3.3 36.9-21.7 40.2-22.3.3-.1 2.3-.9 4.5-1.9 2.2-1 4.5-1.9 5-2 .6-.1 1.5-.5 2.1-.8 1.4-.9 11.5-4.9 13.4-5.3.8-.2 5.7-1.8 10.9-3.5s11.5-3.5 14-4.1c2.5-.5 5.7-1.2 7.1-1.4 1.4-.3 3.1-.8 3.8-1 1.2-.4 11.5-2.3 16.7-3 1.1-.2 3.6-.5 5.6-.9 8.4-1.3 21.6-2 38.9-2 20.3 0 32 .9 50.6 3.8 2.5.4 18.8 4 27.4 6.1 2.7.6 18.5 5.6 20.5 6.4 1.1.5 4 1.7 6.5 2.7 2.5.9 8.7 3.7 13.8 6.1 5.2 2.4 9.5 4.3 9.7 4.3.2 0 3.8 2 7.9 4.5 4.2 2.5 8.1 4.5 8.5 4.5.5 0 1.1.3 1.3.7.2.5 4.9 3.9 10.6 7.6 5.6 3.8 10.2 7.3 10.2 7.8s.4.9 1 .9c2.4 0 26.3 22.5 33 31.1 1.4 1.8 3 3.7 3.5 4.3 4.1 4.3 21.5 29.6 21.5 31.3 0 .3 1 2.2 2.2 4.2 1.3 2 2.3 3.8 2.4 4.1 0 .3 1.5 3.6 3.3 7.5 3.4 7.2 5.2 11.2 5.7 13 .2.5 1.6 4.8 3.3 9.5 3.1 9 7.2 23.8 7.6 28 .1 1.4.6 4.1 1 6 .4 1.9.9 4.8 1.1 6.5 1.5 14.8 1.8 19.7 1.7 31.5 0 17.2-1.6 35.4-3.8 44.7-1 4.4-1.3 6.1-1.9 9.5-.3 2-1 4.7-1.5 6.2-.6 1.4-.8 2.6-.5 2.6.4 0 .1.7-.6 1.5-.6.8-.9 1.9-.5 2.5.3.5.1 1-.6 1s-1 .3-.6.6c1 1.1-8.8 27.2-10.8 28.6-.5.4-.7.8-.2.8.9 0-6.3 14.3-7.5 14.8-.4.2-.8 1.2-.8 2.3 0 1-.4 1.9-.9 1.9s-1.7 1.7-2.6 3.7c-1 2.1-2.1 4-2.4 4.3-.3.3-2.4 3.2-4.5 6.4-4.5 6.9-3.4 5.5-13.5 17.6-9.2 11.2-16.1 18.2-25.6 26.5-3.9 3.3-8.3 7.2-10 8.7-1.6 1.6-3.3 2.8-3.6 2.8-.4 0-2.2 1.3-4 3-1.9 1.6-3.9 3-4.6 3-.6 0-1.3.3-1.5.7-.1.5-3 2.6-6.3 4.7-3.3 2.2-7.1 4.7-8.5 5.6-1.4.9-4.3 2.5-6.5 3.5-2.2 1.1-4.2 2.2-4.5 2.5-1.8 2.4-37.4 17.2-44 18.4-1.4.3-2.6.5-2.7.7-.2.1-.6.2-1 .3-.5.1-1.4.5-2 .9-.7.5-1.3.6-1.3.3s-1-.2-2.3.3c-1.3.5-3.9 1.2-5.8 1.5-1.9.3-4.5.8-5.9 1.1-8.9 1.8-25.1 2.4-30.3 1.1-2.4-.6-2.6-.2-6.2 11.2-4.2 12.9-13.2 36.8-17 45-1.4 2.9-2.5 5.5-2.5 5.9 0 1.4-14.7 30.6-20.8 41.3-5.9 10.4-20.7 33.8-22.1 35-.3.3-2.6 3.2-5.1 6.5-2.4 3.3-4.9 6.5-5.5 7.1-.5.6-2.3 2.9-4 5-4.7 6.2-26.3 27.5-34 33.6-6 4.7-13.5 10-17 12.1-.6.3 1.7-4.9 5-11.6 9.4-18.9 16.4-35.8 21.8-52.7 2.8-8.9 8-28.6 9.1-34.5 4.2-22.9 4.5-25 5.3-36.5 1.1-14.9.5-38.2-1.1-46.5-.4-1.7-1.1-5.5-1.7-8.5-1.9-9.6-6.9-23-11.2-30.2-5.2-8.7-13.9-17.6-20.9-21.2-5.1-2.7-15.3-6.6-16.6-6.5-.4.1-.9 0-1.2-.1-3.4-1.3-12.9-2-26-1.9-10.3.1-12.1.2-22.7 1.3-13.8 1.5-36.2 6-55.8 11.3-7.1 1.9-13.4 3.6-14 3.7-.5.1-4.1 1.3-8 2.6-3.8 1.3-7.4 2.4-8 2.5-.5.1-1.7.4-2.5.7-.8.4-4.4 1.6-8 2.8-3.6 1.2-7.2 2.5-8 2.8-.8.3-1.9.6-2.5.8-.5.1-5.9 2.1-11.9 4.4-6 2.2-11 4-11.1 3.8-.1-.2.6-3.7 1.7-7.8 1-4.1 2.1-8.6 2.3-10 .3-1.4.9-4.8 1.5-7.5 1.3-6.5 2-10.2 2.5-14.5.3-1.9.7-5.1 1-7 1.3-10.1 1.7-15.9 1.6-30.5 0-15.7-.5-25.5-1.6-30.5-.3-1.4-.8-4.1-1.1-6-.3-1.9-1-5-1.6-6.8-.5-1.8-1.1-3.9-1.2-4.5-1.5-7.3-1.9-8.8-2.7-9.3-.5-.3-.9-1.1-.9-1.8 0-.8-1-3.5-2.2-6.2-1.2-2.7-2.1-5.2-2-5.7.1-.4-.3-.7-.8-.7-.6 0-1-.6-1-1.3 0-1.3-8.8-15.2-12-19.1-2.4-2.9-12.5-13-14.9-14.9-11.5-9.2-30.8-19-41.6-21-1.1-.2-2.7-.7-3.5-1-1.8-.7-6.8-1.5-14-2.5-7-.9-34.1-.8-40 .2-2.5.4-5.8.9-7.5 1.1-1.6.2-3 .4-3 .5 0 .1-1.3.4-3 .6-3.6.5-25.3 7-29.8 8.9-1.8.7-3.5 1.4-3.9 1.4-.5.1-5.9 2.8-12.2 6-11.9 6-29.5 17.3-30.9 19.8-.5.7-1.2 1.1-1.8.8-.5-.4-.9-.1-.9.4 0 .6-.4 1.1-.8 1.1-.5 0 .2-4.2 1.4-9.3 2.2-8.7 7.3-30.5 7.9-33.7.1-.8.5-3.1.9-5 .7-4.1 1.2-6.7 2.6-13.5.5-2.8 1.2-6.8 1.4-9.1.2-2.2.7-5.6 1-7.5.4-1.9.8-5 1.1-6.9.2-1.9.4-3.5.5-3.5.1 0 .3-2.3.6-5 .2-2.8.6-7 .9-9.5 1.3-11.8 1.9-43.2 1.1-56-2.2-32.5-10.7-61-23.3-78.4-9.4-12.9-21.5-20.9-33.8-22.3-7-.8-23.5-.8-23.5 0 0 .4-.3.6-.7.4-.7-.5-8.3.6-12.8 1.7-8 2-13.1 3.8-20.5 7-9.3 4.1-24.3 12.4-24.8 13.8-.2.4-.8.8-1.3.8-.8 0-8.1 5-11.9 8.2-.9.7-3.8 3.1-6.5 5.3-19.5 15.5-54.9 57.3-70.6 83.3-.9 1.5-4.9 8.1-8.8 14.7-4 6.6-7.6 12.7-8.1 13.5-2.4 3.8-25 48.5-25 49.4 0 .2-1.4 3.5-3.1 7.3-1.7 3.7-3.9 8.7-4.9 10.9-1.1 2.3-2.2 5.4-2.6 6.8-.3 1.4-1.1 2.6-1.7 2.6-.6 0-.8.2-.5.6.3.3-1.4 5.5-3.9 11.7-2.4 6.2-4.6 11.9-4.8 12.7-.4 1.5-6.5 18.5-8.3 23.1-.6 1.5-.8 3-.5 3.3.4.3 0 .6-.7.6s-1.1.3-.8.6c.4.3-.8 4.9-2.6 10.2-1.8 5.3-3.3 9.9-3.3 10.2-.1.3-.7 2.5-1.4 5s-1.4 4.9-1.5 5.5c-.1.5-1.2 4.4-2.4 8.5s-2.4 8.3-2.6 9.2c-.2 1-.6 2.6-.8 3.5-.2 1-1.4 5.4-2.5 9.8-1.9 7.2-5.4 22.1-6.7 28.5-.3 1.4-.7 3.6-1 5-.3 1.4-.7 3.4-.9 4.5-.2 1.1-.6 3.1-.9 4.5-.3 1.3-.8 4.2-1.2 6.4-.3 2.2-.7 4.3-.9 4.6-.2.3-.6 2.1-.9 4-.3 1.9-.8 4.6-1.1 6-.3 1.4-.7 4.5-1.1 7-.4 3.9-1.1 8.3-2.8 18.4-.2 1.3-.7 5-1.1 8.2-.4 3.3-.9 7-1.1 8.4-.4 2.9-1.4 10.7-2 16.5-.2 2.2-.7 7.1-1.1 11-1 8.8-1 142.3-.1 148.8.4 2.6 1 5.2 1.3 5.7.3.6.1 1-.5 1s-.8.5-.5 1c.4.6.8 2 1.1 3.3.2 1.2.6 3.3.9 4.7.3 1.4 1 5.2 1.5 8.5.6 3.3 1.7 8.5 2.5 11.5.9 3 1.8 6.4 2 7.5 2.1 11.7 12.5 37.8 19.9 50.5 2 3.4 3.6 6.5 3.6 7.1 0 .5.5.9 1 .9.6 0 1 .4 1 1 0 .5.6 1.8 1.4 2.7.8 1 3.5 4.5 6 7.8 7.4 9.9 23.6 25.5 26.5 25.5.6 0 1.1.4 1.1.9s1.2 1.6 2.8 2.4c10.1 5.3 13.4 6.8 18.7 8.5 7.9 2.7 19.5 4.6 19.5 3.3 0-.7 5.8-.6 6.5.1.9.9 10.5-2.3 18.4-6.1 4.6-2.2 12.6-10.2 14.8-14.8 2.6-5.3 2.8-11.6.7-15.3-1-1.6-2.1-3-2.4-3-1.2 0-7.8-10.3-12.5-19.5-2.5-5-4.6-9.1-4.6-9.2.1-.4-1-3.3-2.6-7.3-.8-1.9-1.6-4.2-1.9-5-.2-.8-1.7-5.5-3.4-10.5-1.6-4.9-3.2-10.1-3.4-11.5-.2-1.4-.5-2.5-.6-2.5-.2 0-.5-1.4-1.4-5.3-.3-1.3-.7-3.1-1-4-.3-.9-.8-2.8-1-4.2-.3-1.4-1-4.4-1.6-6.8-.6-2.4-.8-4.7-.5-5.3.4-.5.2-.9-.3-.9s-.9-.6-1-1.3c-.4-3.5-1.2-8.8-2.1-14.2-1.5-8.3-2.1-12.6-2.5-16.6-.2-1.9-.7-5.4-1-7.9-1.8-15.2-3.6-36-4.2-50-.6-13-.6-70.2 0-82 1.1-21 1.8-32.5 3.2-48.5 1.4-17 2.4-26.4 3.5-34.6.5-4.2 1.2-9.8 1.4-12.5.3-2.7.8-6.3 1.1-7.9.4-1.7.8-4.1.9-5.5l.9-6.3c.3-2 .8-5.2 1.1-7 .2-1.7.7-4.2.9-5.3.2-1.2.7-3.9 1.1-6 1.9-12.4 1.7-11.3 3.4-18.4.5-2.5 1.2-6.1 1.5-8 .4-1.9 1-5.3 1.5-7.5.8-3.2 2.8-11.8 3.7-15.8.1-.4.2-.8.4-1 .1-.1.3-1.1.4-2.2.2-1.1.7-3.6 1.1-5.5 1-3.9.9-3.6 1.9-7.1.4-1.4.8-3.2 1-4 .1-.8 1-3.9 1.9-6.9.9-3 1.8-6.4 2-7.5.2-1.1.7-2.7 1-3.5.3-.8 1.1-3.3 1.6-5.5 1.8-7.1 11-34.4 12.6-37.5.9-1.7 1.3-3 1.1-3-.3 0 1.2-4.2 3.3-9.3 2.1-5 3.9-9.5 4-9.9 1.9-6.7 23.9-52.2 26-53.8.5-.4 2.2-3.2 5.5-9.5.6-1.1 1.4-2.2 1.7-2.5.5-.4 4-5.6 7.4-10.9 5.1-8 19.7-24.2 27.8-30.9 4.9-4 12-8 17.5-9.7 5.2-1.7 6.4-1.9 11-1.6 5.2.3 12.2 10.9 13.8 20.8.3 2.1.8 4.1 1 4.4.7 1.2 1.7 17.3 1.8 27.9 0 10.1-.8 22.9-2 33.5-.3 2.7-.7 6.6-.9 8.5-.2 1.9-.4 3.5-.5 3.5-.1 0-.3 1.1-.4 2.5-.3 2.7-1.7 11.6-2.3 14-.2.8-.6 3.3-.9 5.5-.3 2.2-1.2 6.7-2 10-.9 3.3-1.7 6.9-1.9 8-.2 1.1-.8 4.2-1.5 7-.6 2.7-1.3 5.9-1.5 7-.2 1.1-.4 2-.5 2-.1 0-.3.7-.5 1.5s-1.3 5.1-2.6 9.5c-1.2 4.4-2.2 8.6-2.2 9.2 0 .7-.3 1.3-.7 1.3-.3 0-.7.8-.8 1.7-.2 2.3-.7 4.4-1.5 6.3-.3.8-2.6 7.6-5 15-2.5 7.4-5.1 15.3-6 17.5-.9 2.2-3.2 8.3-5.2 13.5-1.9 5.2-4 10.4-4.5 11.5-2.8 6.1-5 11.5-5 12 0 .3-3.2 7.1-7 15.1s-7 14.8-7 15.1c0 .3-.9 1.8-2.1 3.4-1.1 1.6-1.8 2.9-1.4 2.9.3 0-.7 2.4-2.3 5.2-1.6 2.9-4.8 8.9-7.2 13.3-7.5 13.9-15.4 26.5-19.5 31.1-4.2 4.7-15.2 16.8-19.2 21-13.6 14.5-14.1 15.3-13.3 18.9.1.5.4 2.3.7 4 .8 5 4.4 13.7 8.5 20.4 2.1 3.4 3.8 6.5 3.8 6.8 0 .2.6 1 1.2 1.7.7.7 2.4 2.7 3.8 4.5 8.8 11.7 23.7 22 35.9 25 7.5 1.9 18.7 1.7 24.9-.3 7.3-2.5 12.7-8.3 19.1-20.7 3-5.7 6.2-11.6 7.2-13 1-1.4 1.6-2.9 1.2-3.3-.3-.3-.1-.6.5-.6.7 0 1.2-.4 1.2-.9 0-1.8 20.6-33.8 26.8-41.6.4-.6 1.9-2.6 3.2-4.5 1.3-1.9 2.9-4 3.5-4.6.5-.6 1.9-2.3 3-3.8 1.1-1.6 2.5-3.3 3-4 .6-.6 2.8-3.4 5-6.1 2.1-2.8 4.2-5.2 4.5-5.5.3-.3 3.2-3.7 6.4-7.5 6.9-8 34.6-35.8 42.5-42.5 2.9-2.5 5.8-5 6.4-5.5.7-.6 3.2-2.6 5.7-4.5s5.6-4.5 7-5.7c1.4-1.3 3-2.3 3.7-2.3.6 0 1.3-.3 1.5-.8.3-.8 15.3-11.2 16.2-11.2.3 0 2.2-1.1 4.2-2.5 8.1-5.5 39.4-18.9 39.4-16.8 0 .3.6.1 1.3-.4.6-.6 1.9-1.1 2.7-1.1.8 0 2.6-.3 4-.7 1.4-.3 6.3-.7 11-.9 7.7-.3 9.2-.1 14.9 2.5 3.8 1.7 8.1 4.7 10.6 7.3 4 4.3 10.1 15.2 10.8 19.2.1 1 .6 2.5 1.1 3.2.4.7.6 1.6.3 1.9-.3.2 0 2.1.7 4.1 1.4 3.8 1.5 32.2.2 37.2-.4 1.4-.9 3.6-1.1 5-1.2 7.1-5 20.9-7.1 25.8-.8 1.8-1.4 3.7-1.4 4.2 0 1.1-10.2 25.3-11 26-.3.3-1.8 3.4-3.5 7-1.6 3.6-3.5 7.2-4.2 8.1-.7.8-1.3 1.9-1.3 2.2 0 .4-2.5 5-5.6 10.1-4.3 7.1-6.5 9.8-8.8 10.8-2.9 1.1-34.7 20-37.1 22-.5.4-4.8 3.3-9.5 6.4-14.2 9.5-29.5 19.8-30 20.4-1.1 1.1-9.9 7-10.5 7-.3 0-1.2.6-2 1.2-2.5 2.4-5.9 4.9-15.7 11.7-5.3 3.7-10.3 7.4-11.1 8.2-.8.8-2.5 2.1-3.7 2.9-2.8 1.9-22.1 16.1-23.7 17.5-2.5 2-3.9 3.2-9.8 7.5-3.3 2.5-6.5 4.9-7.1 5.5-.6.5-2.3 1.9-3.9 3-1.5 1.1-3.5 2.7-4.4 3.6-.9.8-5.9 4.9-11.1 8.9-5.2 4.1-10.4 8.3-11.5 9.3-1.1 1-5.9 5.1-10.7 9-4.9 3.9-8.8 7.5-8.8 7.9 0 .4-.5.8-1 .8-.6 0-3 1.9-5.5 4.2-2.4 2.4-6.4 5.9-8.7 7.8-6 5-39.5 38.6-44.2 44.3-11.4 13.8-18.1 26.1-17.9 32.7.1 3.3 1.3 10.6 2.7 15.5.1.5.8 3 1.5 5.5s1.5 5.2 1.8 6c.4.8.7 1.7.7 2 .1.3.7 2.1 1.5 4 .7 1.9 1.6 4.4 2 5.5 7.3 19.6 20.4 36.3 33.2 42.3 3.5 1.6 7.3 3 8.4 3 14.9.7 24.9-.9 40-6.5 11.4-4.2 36.4-16.8 38.5-19.3.3-.4 2.1-1.5 4-2.6 1.9-1 3.7-2.1 4-2.4.3-.3 2.5-1.8 5-3.4 9.1-5.9 29.4-21.4 34.5-26.3.7-.7 1.5-.9 1.9-.6.3.4.6.2.6-.4 0-.6 2.1-2.7 4.6-4.6 14-11 53.9-50.3 72.9-72.1 8.6-9.8 18.7-21.9 22.7-27.1 1.2-1.7 2.5-3.2 2.9-3.5.4-.3 2.2-2.5 4.1-5 1.9-2.5 6.3-8.3 9.8-12.9 14.8-19.4 45-65.1 45-68.2 0-.5.5-.9 1.2-.9.6 0 .9-.3.6-.6-.4-.3.4-2.1 1.7-4 1.3-1.9 2.5-3.8 2.7-4.2.7-1.7 30.9-23.2 32.5-23.2.4 0 1.4-.6 2.2-1.4.9-.7 3.6-2.4 6.1-3.7 2.5-1.3 4.7-2.6 5-2.9 2.6-2.6 40-20.5 40-19.2 0 .4.4.2.8-.4.6-.9 15.3-6.7 16.6-6.5.3 0 2.2-.7 4.3-1.5 2-.9 4.4-1.7 5.2-1.9.9-.2 3.1-.8 4.9-1.4 1.7-.5 3.2-.7 3.2-.4 0 .3.6.1 1.3-.5.6-.6 3.2-1.3 5.7-1.7 2.4-.4 4.8-.8 5.1-1.1.4-.2 2.4-.6 4.5-1 2.2-.3 5-.8 6.4-1 1.4-.3 8-.8 14.7-1.1 25.9-1.1 41 5 44.8 18.2 1.2 4.1 2.9 20.7 2.6 25 0 .5-.2 5-.5 10-.2 4.9-.7 11-1 13.5-1.3 9.4-1.7 12.5-2 14-.1.8-.7 3.7-1.1 6.5-.5 2.7-1 5.2-1 5.5-.1.3-.5 2.7-1 5.5-.4 2.7-1 5.4-1.3 6-.4.5-.7 1.4-.8 2-1 5.1-1.7 8.2-4 16-1.4 4.9-2.7 9.7-2.9 10.5-.6 2.7-9.5 27.8-11.2 31.7-.9 2.1-1.8 4.2-1.9 4.8-1 4.2-22.6 49-24.3 50.5-.5.5-2.2 3.3-5.5 9.3-3.7 6.9-22.7 35.2-27.4 40.8-.6.8-4.2 5.2-7.9 9.9-3.8 4.7-7.4 9.1-8 9.8-1.6 1.6-1.7 3.2-.3 3.3.6.1 1.5.3 2 .4.6.1 1.2.4 1.5.5.3.1.8.3 1.3.5.4.1 1.4.4 2.2.7 3.5 1.4 11.2 2.8 12.1 2.3.5-.4.9-.2.9.3s1 .8 2.3.7c1.2-.1 3.4.2 5 .6 1.6.5 2.5.4 2.2-.2-.4-.5.3-.6 1.7 0 1.3.4 3.2.7 4.3.5 1.1-.3 5.2-.6 9-.9 3.9-.2 8.1-.6 9.5-.9 1.4-.3 3.4-.8 4.5-1 12.1-2.5 33.3-10.1 40.5-14.5.8-.6 4.6-2.6 8.3-4.6 3.8-1.9 7.4-4 8-4.5.7-.5 4.4-3.1 8.2-5.6 16.8-11.2 30-22.3 48.9-40.9 8.5-8.5 20.6-21.5 24.4-26.3 1.5-1.9 3.2-4 3.7-4.6.6-.6 3.3-4 6-7.6 2.8-3.6 5.2-6.7 5.5-7 .3-.3 2.7-3.4 5.2-7 2.6-3.6 5.2-7.1 5.8-7.7.6-.7 2-3 3.2-5 1.3-2.1 3-4.7 4-5.7 1-1.1 1.8-2.3 1.8-2.7 0-.5 1.3-2.7 2.9-5.1 8.5-12.7 19.8-34.6 27.9-54.3l2.1-5 6.3.3c15.2.6 38.8.5 44.3-.1 11.9-1.5 14.1-1.8 19-2.7 2.8-.5 6.4-1.2 8-1.5 1.7-.3 4.1-.7 5.5-1.1 1.4-.3 3.2-.7 4-.8 4.1-.7 31.5-9.2 33.5-10.4.6-.4 1.5-.7 2.1-.8 1.8-.3 22.8-9.5 30.4-13.3 5.5-2.8 18.4-10 23-12.9 11-6.9 22.6-14.7 25-16.9 1.4-1.3 3-2.3 3.7-2.3.6 0 1.3-.3 1.5-.8.3-.6 7.3-6.6 13.2-11.2 8-6.2 32.7-30.5 40.3-39.5 5-6.1 13.1-16.3 15.8-20.1 1.1-1.5 3.1-4 4.3-5.6 1.3-1.5 2.1-2.8 1.8-2.8-.3 0 .3-.9 1.4-2 1.1-1.1 2-2.6 2-3.4 0-.8.4-1.6.9-1.8 2.3-.8 26.4-44.8 27.5-50.1.3-1.2 1.2-3.6 4-10.7 1.7-4.2 2.9-7.2 3.1-8.3.2-.4.3-.8.5-1 .1-.1.3-.9.5-1.7.2-.8 2-6.8 3.9-13.3 1.9-6.4 3.7-13 4-14.5 1.2-6.7 1.7-8.8 2.3-10.2.3-.8.7-3.5.9-6 .1-2.5.3-4.5.4-4.5.4 0 1.5-7.2 2.7-18 .9-8.9.9-50.4-.1-61-1-11.3-1.5-16.5-2-20-.3-1.7-1-6.5-1.5-10.8-.6-4.3-1.3-8.2-1.6-8.7-.5-.7-1.3-5.5-2-11-.2-1.4-.4-2.7-.6-3-.1-.3-.3-1-.4-1.5-.1-.6-.8-3-1.5-5.5s-1.4-5-1.6-5.5c-.1-.6-.8-3-1.5-5.5s-1.3-4.7-1.4-5c-2.1-7.8-9.6-27.3-14.5-37.7-1.7-3.4-3-6.7-3-7.2 0-.6-.4-1.1-1-1.1-.5 0-1-.5-1-1.1 0-1.5-10-18.8-12.2-21.3-1-1.1-1.8-2.4-1.8-2.9s-.8-1.9-1.7-3.2c-1-1.2-2.5-3.3-3.3-4.5-.8-1.2-2-2.8-2.6-3.4-.6-.6-1.5-1.8-2-2.7-4.2-7.4-26.4-31-39.7-42.4-3.2-2.8-6.5-5.6-7.2-6.3-.8-.6-1.6-1.2-1.9-1.2-.3 0-1.4-.8-2.4-1.8-3.4-3.1-6.2-5.2-7.1-5.2-.5 0-1.1-.3-1.3-.8-.4-1-19.3-13.4-24.8-16.3-2.5-1.3-4.7-2.7-5-3-.3-.4-1.5-.9-2.7-1.3-1.3-.4-2.3-1.2-2.3-1.7s-.5-.9-1-.9c-.6 0-6.5-2.6-13.3-5.9-10.2-4.9-17.8-8-35.2-14.7-1.1-.4-2.2-.8-2.5-.9-1.2-.3-8.6-2.7-10-3.2-2.1-.8-2.1-.9-5.5-1.7-1.6-.5-4.9-1.4-7.2-2.2-2.3-.7-5.2-1.5-6.5-1.8-1.3-.2-5-1.1-8.3-1.9-3.3-.9-9.6-2.3-14-3.2-4.4-1-8.9-1.9-10-2.2-1.1-.2-3.3-.6-5-.9-1.6-.2-4.1-.7-5.5-1-1.4-.3-4.7-.8-7.5-1-2.7-.3-6.1-.7-7.5-1-2.6-.5-5.4-.9-16-2-11.5-1.1-15.3-1.4-27.2-1.8-6.5-.3-12.2-.8-12.8-1.1-.5-.3-1-.2-1 .3 0 .6-1.4.7-3.5.2-2-.5-3.3-.4-2.9.1.3.5-.7.4-2.3-.2-3-1.1-3-1.1-5.5.2-1.2.7-1.8.6-1.8-.1s-.6-.8-1.8-.1c-1 .5-2.4.6-3.3 0-.9-.4-1.9-.6-2.2-.3z"/><path d="M681 358.5c-2.1 4.4-4.2 9.3-4.5 11-2.4 11.5-2.6 13.7-2.9 25.8-.2 6.5.1 14.4.6 17.4.5 3.1 1 7.2 1.3 9.2.2 2 .4 3.6.5 3.6.1 0 .4 1.3.6 3 1.2 7.8 7.1 22.1 10.7 26 2.2 2.4 2.7 2.5 6.8 1.6 6.7-1.5 10.2-2.2 12.9-2.6 1.4-.2 7.2-1.3 13-2.4 5.8-1.1 11.6-2.2 13-2.5 1.4-.2 3.6-.7 5-1 2.2-.5 4.5-.9 11.5-2 1.1-.2 3.4-.6 5-.9 1.7-.4 4.6-.9 6.5-1.2 1.9-.3 5.8-1 8.5-1.5 2.8-.6 6.4-1.2 8-1.5 1.7-.2 7.6-1.3 13.2-2.4 5.6-1.1 12.2-2.3 14.5-2.6 2.3-.4 4.5-.8 4.8-1 .3-.2 2.6-.6 5-1 2.5-.4 7.2-1.3 10.5-2 6.6-1.5 11.2-2.4 16.4-3.1 1.8-.2 3.7-.7 4.2-1 .5-.2 2.1-.6 3.6-.8 1.6-.2 4.8-.9 7.2-1.6 2.4-.6 4.9-.9 5.7-.6.8.3 1.4.2 1.4-.3s1.9-1.2 4.3-1.6c6.1-1.1 7-1.3 9.2-1.8 1.1-.3 6.3-1.5 11.5-2.7 51.2-11.8 64.5-20.1 75.2-47 2.1-5.2 1.7-6.5-1.7-6.7-9.4-.8-22.4-1.6-42-2.8-4.4-.2-12.5-.7-18-1-5.5-.3-13.8-.8-18.5-1-4.7-.3-13.2-.7-19-1-5.8-.3-15.4-.8-21.5-1.1-6-.2-14.8-.7-19.5-.9-4.7-.3-13.4-.7-19.5-1-14.5-.6-31.6-1.4-44-2-15-.8-34.2-1.5-51-2.1-8.2-.2-17.1-.6-19.8-.7l-4.7-.3-4 8.1zM728 487.8c-3.9 5.9-6.4 14.4-7.4 25.7-.1 1.1-.5 2.5-.9 3.1-.3.6-.3 1.4 0 1.8.4.3.8 4.3.9 8.9.3 13.9 3.1 28.2 7.3 37.8 2 4.5 6.3 9.4 7.3 8.4.3-.3 1.6-.8 2.9-1.1 5.7-1.2 7.5-1.6 9.9-1.9 1.4-.2 2.5-.4 2.5-.5 0-.1.9-.3 2-.5s3.6-.7 5.5-1.1c1.9-.4 4.9-.8 6.5-1 4.7-.6 8-1.2 8-1.4 0-.2.9-.4 2-.5 2.1-.3 12.4-2.2 16.5-3 1.4-.3 4.3-.8 6.5-1.1 2.2-.2 4.6-.7 5.4-1 .8-.2 3-.7 5-1 2-.3 4.5-.7 5.6-.9 5.2-1 7.2-1.4 10-1.9 4.8-.8 8.8-1.6 11.5-2.2 1.4-.3 3.5-.8 4.8-1 1.2-.2 3.4-.6 5-.9 1.5-.3 4.2-.8 6.1-1.1 1.8-.3 4.3-.8 5.5-1.1 6.5-1.5 11.4-2.5 13.6-2.8 1.4-.2 2.5-.4 2.5-.5 0-.2.9-.4 2-.5 2.3-.4 7.6-1.5 18.5-4 4.1-.9 8.5-1.8 9.7-2 1.2-.2 2.7-.6 3.2-1 1.1-.6 3.4-1.2 8.4-2.1 1.6-.3 4.6-1.2 6.7-1.9 2.1-.7 4.1-1.1 4.4-.8.3.4.6.1.6-.5s.6-.9 1.4-.6c.8.3 1.7.1 2.1-.5.3-.6 1.4-1.1 2.3-1.1 3.3 0 16.1-7.5 21-12.2 2.6-2.6 5.7-6.4 6.8-8.5 1-2.1 2.5-4.6 3.3-5.6.8-.9 1.1-1.7.8-1.7-.3 0 .1-1.6.9-3.6.9-2 1.2-4 .7-4.4-.7-.7-8.1-1.3-31.8-2.5-3.3-.2-10-.6-15-.9-4.9-.4-13-.9-18-1.1-9.7-.5-23.1-1.2-39.1-2-5.5-.3-15-.8-21-1.1-6-.2-15.2-.7-20.4-.9-34.5-1.6-48.8-2.2-72-2.9l-17.5-.6-2.5 3.8z"/></svg>