<svg xmlns="http://www.w3.org/2000/svg" viewBox="0 0 162 34" id="svg_logo" width="100%" height="100%"><g><path fill="#fff" d="M161.5 11.92c0 6.67-6.54 11.51-11.52 10.8-1.08 3.11-5.54 8.44-9.11 7 3.09-3.59 3.79-7.88 3.48-9.37-.53-2.43-6.3 1.32-6.32 1.33-.89-2.43 5-5.25 7.41-4.24 1.84.74 1.6 4.91-.27 8.33 3.19-2 4.54-7 4.54-7 1.93.4 7.75-2.09 7.75-8 0-4.4-3.63-7.95-8.73-7.95s-8.79 3.74-10.93 8c-.16.32-1.45-.33-1.45-1.25 0-2.95 5.27-8.44 12.23-8.65 5.49-.23 12.92 2.08 12.92 11Zm-18.13-4.77a3.74 3.74 0 0 0 .14 3.65c.3-.13 7.18-1.19 8.41-1.83a1.89 1.89 0 0 0 1-1.35c-.81-.1-9.4-.51-9.55-.47Zm1.53 4.57a3.19 3.19 0 0 0 .11 3.07c.26-.11 6-1 7.08-1.54a1.59 1.59 0 0 0 .87-1.14c-.71-.09-7.93-.43-8.06-.39ZM64 8.74c.45.33-.16.8-.34 1.24-2 5.22-2.07 13.05-.88 14.47.42.5.3 1.25-.55 1.25-2.81 0-3.29-5.35-3.29-6.4 0 0-1.5 5.36-3.61 5.36-2.46 0-2.53-6-2.43-7.26a4.66 4.66 0 0 0-1.2.7c.23 1.15 1.73 8.43.65 11.79-.62 1.89-1.63 4.07-4 4.07s-4.45-2.19-4.45-5.38c0-4.86 4-9.85 5-10.81a.62.62 0 0 0 .07-.53 23.75 23.75 0 0 0-1.12-4c-.09.21-3.4 11.21-5.63 11.21a2.75 2.75 0 0 1-2.43-2.08S38.82 25 37.26 25c-1.84 0-1.84-1.89-1.88-2.34.1-1.53 1.22-9.55-1-9.55S31.55 17.94 30.92 25c0 .24-.5.52-.73.55a2.93 2.93 0 0 1-2.76-1.12c1-5.17 1.73-11.86-.2-14.48a1.54 1.54 0 0 1 1.49-1.13c2.1 0 2.79 3.19 2.71 4.23 0 0 1-3.2 3.26-3.2 4.53 0 3.32 10.6 3.82 10.6s.57-1.16.63-1.53c.37-4 2.13-8.95 4.83-9.51a4.54 4.54 0 0 1 1.56.06c.27.06.46.07.5-.29s.45-.57.82-.59c2.51 0 4 6.22 4.09 6.74l.12.46A11.89 11.89 0 0 1 53 15c.13-.5 1.62-6.21 5.5-6.21a6 6 0 0 1 1.66.33c.19 0 .32 0 .35-.19.23-.59 2-1 3.42-.16Zm-18.78 3.08c-2.53 0-4.56 8.83-3.39 8.83 1.38 0 3.5-7.95 3.6-8.47.04-.25-.09-.36-.21-.36Zm4.5 9c-.26.38-2.78 4.42-2.63 8.49 0 .52.28 1.66 1.06 1.66s1.57-1 1.88-2.93a23.65 23.65 0 0 0-.33-7.22Zm10-9.11c-3.81-.29-5.45 7.81-4.21 8.12 1.78.47 3.72-5.26 4.19-8.12Zm-34.06-1c.28.36 2.13 2.5 1.7 6.88-.36 3.57-2 8.21-4.89 8.21-2.72 0-4.09-3.7-3.84-7.76a.51.51 0 0 0-.58.32c-2.24 4.16-7.23 9.14-9.94 9.14-1.46 0-2-2.66-2-2.89 0-1.65 8.22-7.54 9.94-8.37a8.94 8.94 0 0 0 1.43-4c0-1.56-.77-2-1.24-2-2.3 0-5.74 3.3-7.46 6.79a1 1 0 0 1-1 .54c-1.51 0-2.44-2.12-2.2-2.4A11.78 11.78 0 0 0 7 13.5c3.22-5.45 3.44-11.15 2.3-11.15-1.8 0-5.21 6-5.21 15.44 0 4.43 1 7 1.65 7.6.21.22 0 .92-.79 1.19-1.53.51-4-1.18-4.38-5.73C-.19 10.41 5.47-.82 10.53.1c1.1.19 2.85 2.41 1.12 8.94a6.2 6.2 0 0 1 2.51-1.29c3.39-.86 6 1.14 5.87 4.15 0 0 1.09-3.29 3-3.29s2.62 2.06 2.62 2.06Zm-1.49 1.77c-.75 0-1.28 1.34-1.3 1.43 1.4 0 1.54 1.93 1.32 1.93a3.41 3.41 0 0 0-2.17.6c-.94 1-1 5.73-.26 6 1.31.37 2.58-3.09 3-5.12.53-2.69-.06-4.8-.59-4.8Zm108.38-.31c.18 3 5.34 10.4 2.2 12.71-2.32 1.71-5.89-1-7.15-3.17l-.09.1c-.35.54-1.64 2.84-3.58 3.22a4.34 4.34 0 0 1-3.27-.35c-1-.49-1.91-1.79-2.22-4a19.82 19.82 0 0 1-2.87 2.85 8.92 8.92 0 0 1-1.68 1 4.16 4.16 0 0 1-1.87.35 3.17 3.17 0 0 1-1.86-.6 4.32 4.32 0 0 1-1.32-1.59 5.38 5.38 0 0 1-.24-.55c-.82 1.61-1.84 2.85-3 2.84-1.8 0-2.72-2-3.06-3.46-.22.68-1.46 3.54-3.21 3.52-2.14 0-2.59-2.65-2.59-2.65-.2.3-3.4 3.42-5.53 3.42H91c-2.36 0-3.7-2.78-3.86-6.17a1 1 0 0 0-.21-.5v1.24c0 1.27-.16 3.89-.93 4.68a.6.6 0 0 1-.45.21A3.24 3.24 0 0 1 82.73 24a1.51 1.51 0 0 1-.23-1.36C84 19 85 10.22 83.57 8.05a1.24 1.24 0 0 0-1-.62 1.47 1.47 0 0 0-1.17.62c-2.1 2.45-3.08 13.19-2.55 16.8a.8.8 0 0 1-.13.62 1 1 0 0 1-.77.24 4.29 4.29 0 0 1-3.43-1.24A1.6 1.6 0 0 1 74.3 23a67.1 67.1 0 0 0 1.41-8.45c.36-3.24.61-7.35-.27-8.53a.89.89 0 0 0-.75-.42 2 2 0 0 0-1.46.75c-2.57 2.91-3.16 14.39-2.73 18.48a1 1 0 0 1-.92.89h-.19a4.19 4.19 0 0 1-3.57-1.47A1.48 1.48 0 0 1 65.5 23a40.18 40.18 0 0 0 1.5-9.92c.19-3-1.43-8.12-2.25-10.18a1.86 1.86 0 0 0-.06-.34c0-.75 1.45-1.38 2.19-1.38 2.06 0 3.18 2 3.14 6.05a11 11 0 0 1 .79-3 4.52 4.52 0 0 1 4.37-3h.38a2.93 2.93 0 0 1 1.7.77c1.33 1.43 1.8 4.27 1.75 6.43 0-.06 1.79-5.78 5-5.78a1.6 1.6 0 0 1 1.19.62c1.62 1.86 1.8 7 1.27 11.34v.62c-.06.67-.07.88.08 1a.42.42 0 0 0 .25.12c.22 0 .22-.31.25-.44.69-2.16 1.5-4.59 1.48-4.13 0 0 1.11-3.28 3-3.28s2.62 2.1 2.62 2.1c.28.37 2.12 2.5 1.69 6.88a19.5 19.5 0 0 1-.57 3 17.58 17.58 0 0 0 1.15-2.68c1.92-7.33 5.47-9.37 8-8.76a11.12 11.12 0 0 1 .93-2c.37-.77 1.77-3.1 3.42-2.46a1.29 1.29 0 0 1 .84 1.28c-2.29 1.48-3.6 7.05-4.38 11.41-.2 1.78-.09 3.24.43 3.33.75.15 1.76-1.65 2.53-4.11a11.39 11.39 0 0 1 .49-1.73 3.41 3.41 0 0 1 .24-.63 11.63 11.63 0 0 1 1.59-2.81 8.4 8.4 0 0 1 2.13-2 4.23 4.23 0 0 1 2.49-.73 2.14 2.14 0 0 1 1.54.63 3.11 3.11 0 0 1 .78 1.53 6.6 6.6 0 0 1 .06 2.08 8.84 8.84 0 0 1-.58 2.26 9.58 9.58 0 0 1-1.2 2.11 5.92 5.92 0 0 1-1.75 1.59 3.45 3.45 0 0 1-1.21.44 2.67 2.67 0 0 1-1.48-.09 7.7 7.7 0 0 0 .18 2.44c.17.67.51 1.06 1 1.09a4.42 4.42 0 0 0 2-1A21.73 21.73 0 0 0 118.3 17c.37-6.42 3.26-12.53 6.37-14.17a3.83 3.83 0 0 1 2.64-.26 4.25 4.25 0 0 1 2.28 5.57 3.36 3.36 0 0 1-.16.33 22.71 22.71 0 0 1-8.11 9.53 16 16 0 0 0 .11 1.69c.28 1.45.75 2.4 1.88 2.44 2.47.1 4.75-5.71 4.75-5.71a22.32 22.32 0 0 0 1.64-5.1c.08-2.31 1.09-3.41 2.12-3.4s1.43 1 1.22 1.37a6.62 6.62 0 0 0-.52 2.85Zm-11.21 2.51a4.92 4.92 0 0 0 .58-.44c.33-.23 4-3.81 5-7.28.14-.45.21-1.66-.37-2a1.59 1.59 0 0 0-2 .36c-1.38 1.53-2.76 5.17-3.27 9.34Zm-9.8 3.11a8.11 8.11 0 0 0 1.75-1.79 14.14 14.14 0 0 0 1.34-2.16 6.41 6.41 0 0 0 .64-1.86c.08-.52 0-.81-.31-.87a1.16 1.16 0 0 0-1 .47 6 6 0 0 0-1 1.54 15.77 15.77 0 0 0-.83 2.2 20.39 20.39 0 0 0-.57 2.43Zm-18.89-5.32c-.76 0-1.28 1.34-1.3 1.43 1.4 0 1.54 1.94 1.32 1.94a3.36 3.36 0 0 0-2.18.59c-1 1-1 5.73-.26 6 1.3.37 2.58-3.09 3-5.12.53-2.73-.07-4.84-.58-4.84Zm10.8-.13c-2.22-.57-4.69 5.66-4.41 7.89.1.78 1 1 2.39-1.74a19.31 19.31 0 0 0 .82-1.77c.47-1.82.87-3.24 1.2-4.38Zm27.35 2c-.12.22-1.77 4.31-2 4.91s2.1 3.26 3.39 2.25c1.52-1.22-1.39-7.24-1.4-7.2Z"></path></g></svg>